<svg width="422" height="409" viewBox="0 0 422 409" fill="none" xmlns="http://www.w3.org/2000/svg">
<path d="M200.26 409C161.093 409 126.137 399.953 95.3922 381.86C65.0689 363.345 41.484 338.519 24.6377 307.381C8.21258 275.823 0 241.529 0 204.5C0 161.159 10.9501 124.131 32.8503 93.4136C54.7505 62.2757 82.7575 38.9223 116.871 23.3534C151.406 7.78446 186.573 0 222.371 0C262.381 0 297.548 9.4676 327.871 28.4028C358.195 46.9172 381.358 71.5329 397.362 102.25C413.787 132.967 422 165.578 422 200.082C422 238.373 411.892 273.508 391.677 305.488C371.461 337.467 344.296 362.714 310.183 381.228C276.49 399.743 239.849 409 200.26 409ZM222.371 395.745C251.01 395.745 276.701 388.802 299.443 374.917C322.607 361.031 340.717 340.623 353.772 313.693C367.25 286.763 373.988 254.783 373.988 217.755C373.988 178.201 366.618 143.066 351.877 112.349C337.137 81.6317 316.289 57.6471 289.335 40.3951C262.802 23.143 231.637 14.517 195.838 14.517C149.511 14.517 113.291 29.4547 87.1796 59.3302C61.0679 89.2058 48.012 130.232 48.012 182.409C48.012 221.962 55.3822 258.15 70.1228 290.971C84.8633 323.371 105.5 349.039 132.033 367.974C158.566 386.488 188.679 395.745 222.371 395.745Z" fill="#191919"/>
</svg>
