<svg width="245" height="70" viewBox="0 0 245 70" fill="none" xmlns="http://www.w3.org/2000/svg">
<rect x="12.0211" y="31.8171" width="27" height="0.5" transform="rotate(-45 12.0211 31.8171)" fill="white"/>
<rect x="37.8304" y="57.6267" width="27" height="0.5" transform="rotate(-45 37.8304 57.6267)" fill="white"/>
<rect x="31.1129" y="57.2729" width="27" height="0.5" transform="rotate(-135 31.1129 57.2729)" fill="white"/>
<rect x="56.9224" y="31.4634" width="27" height="0.5" transform="rotate(-135 56.9224 31.4634)" fill="white"/>
<rect x="14.1422" y="34.999" width="29.5" height="29.5" transform="rotate(-45 14.1422 34.999)" stroke="white" stroke-width="0.5"/>
<rect x="11.6675" y="34.9993" width="33" height="33" transform="rotate(-45 11.6675 34.9993)" stroke="#E9CF66" stroke-width="0.5"/>
<path d="M9.71746 33.0547L11.662 34.9993L9.71746 36.9438C8.64352 38.0178 6.90231 38.0178 5.82837 36.9438C4.75443 35.8699 4.75443 34.1287 5.82837 33.0547C6.90231 31.9808 8.64352 31.9808 9.71746 33.0547Z" stroke="#E9CF66" stroke-width="0.5"/>
<path d="M36.9295 9.73162L34.985 11.6762L33.0404 9.73162C31.9665 8.65768 31.9665 6.91647 33.0404 5.84253C34.1144 4.76859 35.8556 4.76859 36.9295 5.84253C38.0035 6.91647 38.0035 8.65768 36.9295 9.73162Z" stroke="#E9CF66" stroke-width="0.5"/>
<path d="M60.2757 36.9448L58.3312 35.0002L60.2757 33.0557C61.3496 31.9818 63.0909 31.9818 64.1648 33.0557C65.2387 34.1296 65.2387 35.8708 64.1648 36.9448C63.0909 38.0187 61.3496 38.0187 60.2757 36.9448Z" stroke="#E9CF66" stroke-width="0.5"/>
<path d="M33.0524 60.2791L34.9969 58.3346L36.9415 60.2791C38.0154 61.3531 38.0154 63.0943 36.9415 64.1682C35.8676 65.2422 34.1263 65.2422 33.0524 64.1682C31.9785 63.0943 31.9785 61.3531 33.0524 60.2791Z" stroke="#E9CF66" stroke-width="0.5"/>
<path d="M72.092 52.0156C72.092 52.2716 72.12 52.4596 72.176 52.5796C72.232 52.6916 72.336 52.7716 72.488 52.8196C72.648 52.8676 72.9 52.8916 73.244 52.8916C73.268 52.8916 73.28 52.9156 73.28 52.9636C73.28 53.0116 73.268 53.0356 73.244 53.0356C72.916 53.0356 72.66 53.0316 72.476 53.0236L71.432 53.0116L70.556 53.0236C70.396 53.0316 70.18 53.0356 69.908 53.0356C69.884 53.0356 69.872 53.0116 69.872 52.9636C69.872 52.9156 69.884 52.8916 69.908 52.8916C70.164 52.8916 70.348 52.8716 70.46 52.8316C70.58 52.7916 70.66 52.7156 70.7 52.6036C70.74 52.4836 70.76 52.3036 70.76 52.0636V46.5076C70.76 46.2676 70.74 46.0916 70.7 45.9796C70.66 45.8676 70.58 45.7916 70.46 45.7516C70.34 45.7036 70.156 45.6796 69.908 45.6796C69.884 45.6796 69.872 45.6556 69.872 45.6076C69.872 45.5596 69.884 45.5356 69.908 45.5356L70.544 45.5476C70.912 45.5636 71.204 45.5716 71.42 45.5716C71.612 45.5716 71.84 45.5596 72.104 45.5356C72.208 45.5276 72.34 45.5196 72.5 45.5116C72.66 45.5036 72.844 45.4996 73.052 45.4996C73.868 45.4996 74.512 45.6716 74.984 46.0156C75.456 46.3516 75.692 46.8756 75.692 47.5876C75.692 48.0836 75.564 48.5036 75.308 48.8476C75.052 49.1916 74.72 49.4516 74.312 49.6276C73.912 49.8036 73.5 49.8916 73.076 49.8916C72.86 49.8916 72.672 49.8716 72.512 49.8316C72.496 49.8316 72.488 49.8116 72.488 49.7716C72.488 49.7476 72.492 49.7236 72.5 49.6996C72.516 49.6756 72.532 49.6676 72.548 49.6756C72.668 49.7076 72.804 49.7236 72.956 49.7236C73.324 49.7236 73.628 49.5516 73.868 49.2076C74.116 48.8636 74.24 48.3756 74.24 47.7436C74.24 47.1116 74.104 46.6236 73.832 46.2796C73.568 45.9356 73.18 45.7636 72.668 45.7636C72.444 45.7636 72.292 45.8156 72.212 45.9196C72.132 46.0236 72.092 46.2276 72.092 46.5316V52.0156ZM82.0848 51.1276C82.0848 51.1116 82.1008 51.1036 82.1328 51.1036C82.1568 51.1036 82.1768 51.1116 82.1928 51.1276C82.2168 51.1356 82.2288 51.1436 82.2288 51.1516C82.1488 51.7756 82.1088 52.3436 82.1088 52.8556C82.1088 52.9196 82.0968 52.9676 82.0728 52.9996C82.0488 53.0236 82.0008 53.0356 81.9288 53.0356H76.6248C76.6008 53.0356 76.5888 53.0116 76.5888 52.9636C76.5888 52.9156 76.6008 52.8916 76.6248 52.8916C76.8808 52.8916 77.0648 52.8716 77.1768 52.8316C77.2968 52.7916 77.3768 52.7156 77.4168 52.6036C77.4568 52.4836 77.4768 52.3036 77.4768 52.0636V46.5076C77.4768 46.2676 77.4568 46.0916 77.4168 45.9796C77.3768 45.8676 77.2968 45.7916 77.1768 45.7516C77.0568 45.7036 76.8728 45.6796 76.6248 45.6796C76.6008 45.6796 76.5888 45.6556 76.5888 45.6076C76.5888 45.5596 76.6008 45.5356 76.6248 45.5356H81.7128C81.7928 45.5356 81.8328 45.5716 81.8328 45.6436L81.8568 47.2396C81.8568 47.2556 81.8328 47.2676 81.7848 47.2756C81.7448 47.2836 81.7208 47.2756 81.7128 47.2516C81.5848 46.7876 81.3688 46.4436 81.0648 46.2196C80.7608 45.9956 80.3608 45.8836 79.8648 45.8836H79.5048C79.2648 45.8836 79.0888 45.9356 78.9768 46.0396C78.8648 46.1436 78.8088 46.3036 78.8088 46.5196V48.9676H79.8048C80.2688 48.9676 80.6248 48.8876 80.8728 48.7276C81.1208 48.5676 81.2448 48.3436 81.2448 48.0556C81.2448 48.0316 81.2648 48.0196 81.3048 48.0196C81.3528 48.0196 81.3768 48.0316 81.3768 48.0556L81.3648 49.1356L81.3768 49.7116C81.3928 49.9836 81.4008 50.1996 81.4008 50.3596C81.4008 50.3756 81.3768 50.3836 81.3288 50.3836C81.2808 50.3836 81.2568 50.3756 81.2568 50.3596C81.2568 50.0316 81.1288 49.7756 80.8728 49.5916C80.6248 49.3996 80.2648 49.3036 79.7928 49.3036H78.8088V52.0156C78.8088 52.2476 78.8528 52.4196 78.9408 52.5316C79.0288 52.6436 79.1688 52.6996 79.3608 52.6996H79.7568C80.3808 52.6996 80.8808 52.5716 81.2568 52.3156C81.6328 52.0596 81.9088 51.6636 82.0848 51.1276ZM92.7499 52.8916C92.7659 52.8916 92.7739 52.9156 92.7739 52.9636C92.7739 53.0116 92.7659 53.0356 92.7499 53.0356C92.4779 53.0356 92.2619 53.0316 92.1019 53.0236L91.2139 53.0116L90.3139 53.0236C90.1619 53.0316 89.9539 53.0356 89.6899 53.0356C89.6659 53.0356 89.6539 53.0116 89.6539 52.9636C89.6539 52.9156 89.6659 52.8916 89.6899 52.8916C90.0259 52.8916 90.2539 52.8516 90.3739 52.7716C90.4939 52.6916 90.5539 52.5236 90.5539 52.2676L90.5419 52.0636L90.2899 47.1556L87.8179 52.9516C87.8019 52.9836 87.7699 52.9996 87.7219 52.9996C87.6739 52.9996 87.6419 52.9836 87.6259 52.9516L84.5899 47.1796L84.4939 51.5116C84.4859 51.9436 84.5699 52.2836 84.7459 52.5316C84.9299 52.7716 85.1859 52.8916 85.5139 52.8916C85.5379 52.8916 85.5499 52.9156 85.5499 52.9636C85.5499 53.0116 85.5379 53.0356 85.5139 53.0356C85.2979 53.0356 85.1299 53.0316 85.0099 53.0236L84.3499 53.0116L83.5939 53.0236C83.4659 53.0316 83.2939 53.0356 83.0779 53.0356C83.0539 53.0356 83.0419 53.0116 83.0419 52.9636C83.0419 52.9156 83.0539 52.8916 83.0779 52.8916C83.4059 52.8916 83.6659 52.7676 83.8579 52.5196C84.0499 52.2716 84.1499 51.9356 84.1579 51.5116L84.2659 46.5436L84.2539 46.5316C84.0939 46.2356 83.9259 46.0196 83.7499 45.8836C83.5819 45.7476 83.3859 45.6796 83.1619 45.6796C83.1379 45.6796 83.1259 45.6556 83.1259 45.6076C83.1259 45.5596 83.1379 45.5356 83.1619 45.5356L83.7259 45.5476C83.8379 45.5556 83.9819 45.5596 84.1579 45.5596L84.7939 45.5476C84.8659 45.5396 84.9579 45.5356 85.0699 45.5356C85.1739 45.5356 85.2539 45.5716 85.3099 45.6436C85.3659 45.7156 85.4699 45.8876 85.6219 46.1596L88.2379 51.0676L90.5179 45.8356C90.5659 45.7236 90.6139 45.6476 90.6619 45.6076C90.7179 45.5596 90.7899 45.5356 90.8779 45.5356C90.9499 45.5356 91.0299 45.5396 91.1179 45.5476C91.2139 45.5556 91.3219 45.5596 91.4419 45.5596L92.1499 45.5476C92.2619 45.5396 92.4219 45.5356 92.6299 45.5356C92.6539 45.5356 92.6659 45.5596 92.6659 45.6076C92.6659 45.6556 92.6539 45.6796 92.6299 45.6796C92.2539 45.6796 91.9819 45.7556 91.8139 45.9076C91.6459 46.0596 91.5699 46.2956 91.5859 46.6156L91.8739 52.0636C91.8899 52.3116 91.9179 52.4916 91.9579 52.6036C92.0059 52.7156 92.0859 52.7916 92.1979 52.8316C92.3179 52.8716 92.5019 52.8916 92.7499 52.8916ZM97.435 53.1796C96.691 53.1796 96.027 53.0076 95.443 52.6636C94.867 52.3116 94.419 51.8396 94.099 51.2476C93.787 50.6476 93.631 49.9956 93.631 49.2916C93.631 48.4676 93.839 47.7636 94.255 47.1796C94.671 46.5876 95.203 46.1436 95.851 45.8476C96.507 45.5516 97.175 45.4036 97.855 45.4036C98.615 45.4036 99.283 45.5836 99.859 45.9436C100.435 46.2956 100.875 46.7636 101.179 47.3476C101.491 47.9316 101.647 48.5516 101.647 49.2076C101.647 49.9356 101.455 50.6036 101.071 51.2116C100.687 51.8196 100.171 52.2996 99.523 52.6516C98.883 53.0036 98.187 53.1796 97.435 53.1796ZM97.831 52.8796C98.279 52.8796 98.679 52.7516 99.031 52.4956C99.391 52.2316 99.671 51.8516 99.871 51.3556C100.071 50.8516 100.171 50.2516 100.171 49.5556C100.171 48.8196 100.059 48.1636 99.835 47.5876C99.611 47.0036 99.287 46.5476 98.863 46.2196C98.439 45.8916 97.943 45.7276 97.375 45.7276C96.647 45.7276 96.087 46.0036 95.695 46.5556C95.303 47.0996 95.107 47.8636 95.107 48.8476C95.107 49.6236 95.223 50.3196 95.455 50.9356C95.695 51.5436 96.019 52.0196 96.427 52.3636C96.843 52.7076 97.311 52.8796 97.831 52.8796ZM111.014 52.8916C111.038 52.8916 111.05 52.9156 111.05 52.9636C111.05 53.0116 111.038 53.0356 111.014 53.0356C110.734 53.0356 110.51 53.0316 110.342 53.0236L109.418 53.0116L108.338 53.0236C108.194 53.0316 107.998 53.0356 107.75 53.0356C107.726 53.0356 107.714 53.0116 107.714 52.9636C107.714 52.9156 107.726 52.8916 107.75 52.8916C108.046 52.8916 108.262 52.8716 108.398 52.8316C108.534 52.7916 108.626 52.7156 108.674 52.6036C108.722 52.4916 108.746 52.3116 108.746 52.0636V49.3036H104.87V52.0636C104.87 52.3036 104.894 52.4836 104.942 52.6036C104.99 52.7156 105.082 52.7916 105.218 52.8316C105.354 52.8716 105.57 52.8916 105.866 52.8916C105.882 52.8916 105.89 52.9156 105.89 52.9636C105.89 53.0116 105.882 53.0356 105.866 53.0356C105.586 53.0356 105.362 53.0316 105.194 53.0236L104.15 53.0116L103.25 53.0236C103.09 53.0316 102.87 53.0356 102.59 53.0356C102.574 53.0356 102.566 53.0116 102.566 52.9636C102.566 52.9156 102.574 52.8916 102.59 52.8916C102.87 52.8916 103.074 52.8716 103.202 52.8316C103.33 52.7916 103.418 52.7156 103.466 52.6036C103.514 52.4836 103.538 52.3036 103.538 52.0636V46.5076C103.538 46.2676 103.514 46.0916 103.466 45.9796C103.418 45.8676 103.33 45.7916 103.202 45.7516C103.082 45.7036 102.886 45.6796 102.614 45.6796C102.59 45.6796 102.578 45.6556 102.578 45.6076C102.578 45.5596 102.59 45.5356 102.614 45.5356L103.262 45.5476C103.63 45.5636 103.926 45.5716 104.15 45.5716C104.454 45.5716 104.806 45.5636 105.206 45.5476L105.866 45.5356C105.882 45.5356 105.89 45.5596 105.89 45.6076C105.89 45.6556 105.882 45.6796 105.866 45.6796C105.578 45.6796 105.366 45.7036 105.23 45.7516C105.094 45.7996 104.998 45.8836 104.942 46.0036C104.894 46.1156 104.87 46.2916 104.87 46.5316V48.9676H108.746V46.5316C108.746 46.2916 108.722 46.1156 108.674 46.0036C108.626 45.8836 108.534 45.7996 108.398 45.7516C108.262 45.7036 108.046 45.6796 107.75 45.6796C107.726 45.6796 107.714 45.6556 107.714 45.6076C107.714 45.5596 107.726 45.5356 107.75 45.5356L108.338 45.5476C108.738 45.5636 109.098 45.5716 109.418 45.5716C109.634 45.5716 109.942 45.5636 110.342 45.5476L111.014 45.5356C111.038 45.5356 111.05 45.5596 111.05 45.6076C111.05 45.6556 111.038 45.6796 111.014 45.6796C110.742 45.6796 110.538 45.7036 110.402 45.7516C110.274 45.7916 110.186 45.8676 110.138 45.9796C110.098 46.0916 110.078 46.2676 110.078 46.5076V52.0636C110.078 52.3036 110.098 52.4836 110.138 52.6036C110.186 52.7156 110.274 52.7916 110.402 52.8316C110.53 52.8716 110.734 52.8916 111.014 52.8916ZM114.059 45.8116C113.107 45.8116 112.423 46.4316 112.007 47.6716C111.999 47.6956 111.975 47.7076 111.935 47.7076C111.895 47.6996 111.875 47.6836 111.875 47.6596C111.907 47.3396 111.943 46.9276 111.983 46.4236C112.023 45.9116 112.043 45.5276 112.043 45.2716C112.043 45.2316 112.063 45.2116 112.103 45.2116C112.151 45.2116 112.175 45.2316 112.175 45.2716C112.175 45.4476 112.403 45.5356 112.859 45.5356C113.547 45.5596 114.351 45.5716 115.271 45.5716C115.743 45.5716 116.243 45.5636 116.771 45.5476L117.587 45.5356C117.891 45.5356 118.111 45.5156 118.247 45.4756C118.391 45.4356 118.483 45.3556 118.523 45.2356C118.531 45.2036 118.555 45.1876 118.595 45.1876C118.643 45.1876 118.667 45.2036 118.667 45.2356C118.643 45.4756 118.615 45.8596 118.583 46.3876C118.559 46.9156 118.547 47.3396 118.547 47.6596C118.547 47.6836 118.527 47.6956 118.487 47.6956C118.447 47.6956 118.423 47.6836 118.415 47.6596C118.295 47.0436 118.071 46.5836 117.743 46.2796C117.415 45.9676 117.011 45.8116 116.531 45.8116C116.299 45.8116 116.143 45.8636 116.063 45.9676C115.991 46.0636 115.955 46.2516 115.955 46.5316V52.0636C115.955 52.3116 115.979 52.4916 116.027 52.6036C116.075 52.7156 116.167 52.7916 116.303 52.8316C116.439 52.8716 116.655 52.8916 116.951 52.8916C116.975 52.8916 116.987 52.9156 116.987 52.9636C116.987 53.0116 116.975 53.0356 116.951 53.0356C116.663 53.0356 116.435 53.0316 116.267 53.0236L115.271 53.0116L114.299 53.0236C114.131 53.0316 113.899 53.0356 113.603 53.0356C113.579 53.0356 113.567 53.0116 113.567 52.9636C113.567 52.9156 113.579 52.8916 113.603 52.8916C113.891 52.8916 114.103 52.8716 114.239 52.8316C114.383 52.7916 114.479 52.7156 114.527 52.6036C114.583 52.4836 114.611 52.3036 114.611 52.0636V46.5076C114.611 46.2356 114.575 46.0516 114.503 45.9556C114.431 45.8596 114.283 45.8116 114.059 45.8116ZM130.03 52.8916C130.054 52.8916 130.066 52.9156 130.066 52.9636C130.066 53.0116 130.054 53.0356 130.03 53.0356H128.182C128.078 53.0356 127.982 53.0036 127.894 52.9396C127.814 52.8756 127.67 52.7116 127.462 52.4476C127.254 52.1756 126.914 51.6996 126.442 51.0196L126.118 50.5636C125.838 50.1556 125.63 49.8716 125.494 49.7116C125.358 49.5436 125.214 49.4276 125.062 49.3636C124.918 49.2916 124.726 49.2556 124.486 49.2556V52.0636C124.486 52.3036 124.506 52.4836 124.546 52.6036C124.594 52.7156 124.682 52.7916 124.81 52.8316C124.938 52.8716 125.138 52.8916 125.41 52.8916C125.434 52.8916 125.446 52.9156 125.446 52.9636C125.446 53.0116 125.434 53.0356 125.41 53.0356C125.13 53.0356 124.906 53.0316 124.738 53.0236L123.742 53.0116L122.866 53.0236C122.706 53.0316 122.49 53.0356 122.218 53.0356C122.194 53.0356 122.182 53.0116 122.182 52.9636C122.182 52.9156 122.194 52.8916 122.218 52.8916C122.49 52.8916 122.69 52.8716 122.818 52.8316C122.946 52.7916 123.034 52.7156 123.082 52.6036C123.13 52.4836 123.154 52.3036 123.154 52.0636V46.5076C123.154 46.2676 123.13 46.0916 123.082 45.9796C123.034 45.8676 122.946 45.7916 122.818 45.7516C122.698 45.7036 122.502 45.6796 122.23 45.6796C122.206 45.6796 122.194 45.6556 122.194 45.6076C122.194 45.5596 122.206 45.5356 122.23 45.5356L122.866 45.5476C123.234 45.5636 123.526 45.5716 123.742 45.5716C124.014 45.5716 124.35 45.5636 124.75 45.5476L125.41 45.5356C125.434 45.5356 125.446 45.5596 125.446 45.6076C125.446 45.6556 125.434 45.6796 125.41 45.6796C125.146 45.6796 124.95 45.7036 124.822 45.7516C124.694 45.7996 124.606 45.8836 124.558 46.0036C124.51 46.1156 124.486 46.2916 124.486 46.5316V49.0516C124.702 49.0436 124.974 49.0396 125.302 49.0396L126.562 47.3116C126.89 46.8556 127.054 46.4756 127.054 46.1716C127.054 46.0196 127.01 45.8996 126.922 45.8116C126.834 45.7236 126.714 45.6796 126.562 45.6796C126.546 45.6796 126.538 45.6556 126.538 45.6076C126.538 45.5596 126.546 45.5356 126.562 45.5356L127.114 45.5476C127.466 45.5636 127.778 45.5716 128.05 45.5716C128.362 45.5716 128.686 45.5636 129.022 45.5476L129.538 45.5356C129.562 45.5356 129.574 45.5596 129.574 45.6076C129.574 45.6556 129.562 45.6796 129.538 45.6796C129.186 45.6796 128.79 45.8076 128.35 46.0636C127.91 46.3196 127.538 46.6396 127.234 47.0236L125.602 49.0516C125.914 49.0676 126.17 49.1276 126.37 49.2316C126.57 49.3276 126.766 49.4836 126.958 49.6996C127.158 49.9156 127.438 50.2756 127.798 50.7796L128.014 51.0796C128.35 51.5436 128.61 51.8916 128.794 52.1236C128.986 52.3556 129.182 52.5396 129.382 52.6756C129.582 52.8116 129.798 52.8836 130.03 52.8916ZM134.242 48.8236C134.914 48.9036 135.446 49.1276 135.838 49.4956C136.238 49.8636 136.438 50.3196 136.438 50.8636C136.438 51.2796 136.318 51.6556 136.078 51.9916C135.838 52.3276 135.506 52.5956 135.082 52.7956C134.658 52.9876 134.186 53.0836 133.666 53.0836C133.442 53.0836 133.186 53.0716 132.898 53.0476C132.786 53.0396 132.646 53.0316 132.478 53.0236C132.318 53.0156 132.138 53.0116 131.938 53.0116L131.062 53.0236C130.902 53.0316 130.686 53.0356 130.414 53.0356C130.39 53.0356 130.378 53.0116 130.378 52.9636C130.378 52.9156 130.39 52.8916 130.414 52.8916C130.646 52.8916 130.822 52.8716 130.942 52.8316C131.062 52.7836 131.146 52.7036 131.194 52.5916C131.25 52.4716 131.278 52.2956 131.278 52.0636V46.5076C131.278 46.1716 131.222 45.9516 131.11 45.8476C130.998 45.7356 130.77 45.6796 130.426 45.6796C130.41 45.6796 130.402 45.6556 130.402 45.6076C130.402 45.5596 130.41 45.5356 130.426 45.5356L131.062 45.5476C131.43 45.5636 131.722 45.5716 131.938 45.5716C132.162 45.5716 132.394 45.5596 132.634 45.5356C132.714 45.5276 132.834 45.5196 132.994 45.5116C133.154 45.5036 133.294 45.4996 133.414 45.4996C134.142 45.4996 134.706 45.6316 135.106 45.8956C135.506 46.1596 135.706 46.5436 135.706 47.0476C135.706 47.4316 135.578 47.7796 135.322 48.0916C135.074 48.4036 134.714 48.6476 134.242 48.8236ZM133.234 45.7636C133.002 45.7636 132.842 45.8196 132.754 45.9316C132.666 46.0356 132.622 46.2356 132.622 46.5316V48.8116L133.102 48.8236C133.518 48.8236 133.838 48.6676 134.062 48.3556C134.286 48.0436 134.398 47.6436 134.398 47.1556C134.398 46.6996 134.298 46.3556 134.098 46.1236C133.898 45.8836 133.61 45.7636 133.234 45.7636ZM133.462 52.7836C134.51 52.7836 135.034 52.2396 135.034 51.1516C135.034 50.5356 134.886 50.0476 134.59 49.6876C134.294 49.3276 133.846 49.1476 133.246 49.1476C133.014 49.1476 132.806 49.1556 132.622 49.1716V52.0636C132.622 52.3276 132.674 52.5156 132.778 52.6276C132.882 52.7316 133.11 52.7836 133.462 52.7836ZM145.663 52.8916C145.703 52.8916 145.723 52.9156 145.723 52.9636C145.723 53.0116 145.703 53.0356 145.663 53.0356C145.503 53.0356 145.255 53.0276 144.919 53.0116C144.567 52.9956 144.315 52.9876 144.163 52.9876C143.963 52.9876 143.719 52.9956 143.431 53.0116C143.159 53.0276 142.943 53.0356 142.783 53.0356C142.751 53.0356 142.735 53.0116 142.735 52.9636C142.735 52.9156 142.751 52.8916 142.783 52.8916C142.991 52.8916 143.139 52.8716 143.227 52.8316C143.323 52.7836 143.371 52.7036 143.371 52.5916C143.371 52.4556 143.291 52.2276 143.131 51.9076L141.883 49.4476H139.747L138.895 51.3316C138.791 51.5636 138.739 51.7796 138.739 51.9796C138.739 52.2676 138.839 52.4916 139.039 52.6516C139.247 52.8116 139.523 52.8916 139.867 52.8916C139.907 52.8916 139.927 52.9156 139.927 52.9636C139.927 53.0116 139.907 53.0356 139.867 53.0356C139.723 53.0356 139.515 53.0276 139.243 53.0116C138.939 52.9956 138.675 52.9876 138.451 52.9876C138.235 52.9876 137.975 52.9956 137.671 53.0116C137.399 53.0276 137.179 53.0356 137.011 53.0356C136.979 53.0356 136.963 53.0116 136.963 52.9636C136.963 52.9156 136.979 52.8916 137.011 52.8916C137.235 52.8916 137.423 52.8476 137.575 52.7596C137.727 52.6636 137.879 52.4996 138.031 52.2676C138.183 52.0276 138.363 51.6756 138.571 51.2116L141.175 45.4876C141.191 45.4636 141.227 45.4516 141.283 45.4516C141.347 45.4516 141.383 45.4636 141.391 45.4876L144.391 51.3916C144.671 51.9596 144.903 52.3516 145.087 52.5676C145.271 52.7836 145.463 52.8916 145.663 52.8916ZM139.903 49.1116H141.715L140.755 47.2156L139.903 49.1116ZM148.24 52.0156C148.24 52.2716 148.268 52.4596 148.324 52.5796C148.38 52.6916 148.484 52.7716 148.636 52.8196C148.796 52.8676 149.048 52.8916 149.392 52.8916C149.416 52.8916 149.428 52.9156 149.428 52.9636C149.428 53.0116 149.416 53.0356 149.392 53.0356C149.064 53.0356 148.808 53.0316 148.624 53.0236L147.58 53.0116L146.704 53.0236C146.544 53.0316 146.328 53.0356 146.056 53.0356C146.032 53.0356 146.02 53.0116 146.02 52.9636C146.02 52.9156 146.032 52.8916 146.056 52.8916C146.312 52.8916 146.496 52.8716 146.608 52.8316C146.728 52.7916 146.808 52.7156 146.848 52.6036C146.888 52.4836 146.908 52.3036 146.908 52.0636V46.5076C146.908 46.2676 146.888 46.0916 146.848 45.9796C146.808 45.8676 146.728 45.7916 146.608 45.7516C146.488 45.7036 146.304 45.6796 146.056 45.6796C146.032 45.6796 146.02 45.6556 146.02 45.6076C146.02 45.5596 146.032 45.5356 146.056 45.5356L146.692 45.5476C147.06 45.5636 147.352 45.5716 147.568 45.5716C147.76 45.5716 147.988 45.5596 148.252 45.5356C148.356 45.5276 148.488 45.5196 148.648 45.5116C148.808 45.5036 148.992 45.4996 149.2 45.4996C150.016 45.4996 150.66 45.6716 151.132 46.0156C151.604 46.3516 151.84 46.8756 151.84 47.5876C151.84 48.0836 151.712 48.5036 151.456 48.8476C151.2 49.1916 150.868 49.4516 150.46 49.6276C150.06 49.8036 149.648 49.8916 149.224 49.8916C149.008 49.8916 148.82 49.8716 148.66 49.8316C148.644 49.8316 148.636 49.8116 148.636 49.7716C148.636 49.7476 148.64 49.7236 148.648 49.6996C148.664 49.6756 148.68 49.6676 148.696 49.6756C148.816 49.7076 148.952 49.7236 149.104 49.7236C149.472 49.7236 149.776 49.5516 150.016 49.2076C150.264 48.8636 150.388 48.3756 150.388 47.7436C150.388 47.1116 150.252 46.6236 149.98 46.2796C149.716 45.9356 149.328 45.7636 148.816 45.7636C148.592 45.7636 148.44 45.8156 148.36 45.9196C148.28 46.0236 148.24 46.2276 148.24 46.5316V52.0156ZM154.945 45.8116C153.993 45.8116 153.309 46.4316 152.893 47.6716C152.885 47.6956 152.861 47.7076 152.821 47.7076C152.781 47.6996 152.761 47.6836 152.761 47.6596C152.793 47.3396 152.829 46.9276 152.869 46.4236C152.909 45.9116 152.929 45.5276 152.929 45.2716C152.929 45.2316 152.949 45.2116 152.989 45.2116C153.037 45.2116 153.061 45.2316 153.061 45.2716C153.061 45.4476 153.289 45.5356 153.745 45.5356C154.433 45.5596 155.237 45.5716 156.157 45.5716C156.629 45.5716 157.129 45.5636 157.657 45.5476L158.473 45.5356C158.777 45.5356 158.997 45.5156 159.133 45.4756C159.277 45.4356 159.369 45.3556 159.409 45.2356C159.417 45.2036 159.441 45.1876 159.481 45.1876C159.529 45.1876 159.553 45.2036 159.553 45.2356C159.529 45.4756 159.501 45.8596 159.469 46.3876C159.445 46.9156 159.433 47.3396 159.433 47.6596C159.433 47.6836 159.413 47.6956 159.373 47.6956C159.333 47.6956 159.309 47.6836 159.301 47.6596C159.181 47.0436 158.957 46.5836 158.629 46.2796C158.301 45.9676 157.897 45.8116 157.417 45.8116C157.185 45.8116 157.029 45.8636 156.949 45.9676C156.877 46.0636 156.841 46.2516 156.841 46.5316V52.0636C156.841 52.3116 156.865 52.4916 156.913 52.6036C156.961 52.7156 157.053 52.7916 157.189 52.8316C157.325 52.8716 157.541 52.8916 157.837 52.8916C157.861 52.8916 157.873 52.9156 157.873 52.9636C157.873 53.0116 157.861 53.0356 157.837 53.0356C157.549 53.0356 157.321 53.0316 157.153 53.0236L156.157 53.0116L155.185 53.0236C155.017 53.0316 154.785 53.0356 154.489 53.0356C154.465 53.0356 154.453 53.0116 154.453 52.9636C154.453 52.9156 154.465 52.8916 154.489 52.8916C154.777 52.8916 154.989 52.8716 155.125 52.8316C155.269 52.7916 155.365 52.7156 155.413 52.6036C155.469 52.4836 155.497 52.3036 155.497 52.0636V46.5076C155.497 46.2356 155.461 46.0516 155.389 45.9556C155.317 45.8596 155.169 45.8116 154.945 45.8116ZM168.632 52.8916C168.656 52.8916 168.668 52.9156 168.668 52.9636C168.668 53.0116 168.656 53.0356 168.632 53.0356C168.352 53.0356 168.128 53.0316 167.96 53.0236L167.036 53.0116L165.956 53.0236C165.812 53.0316 165.616 53.0356 165.368 53.0356C165.344 53.0356 165.332 53.0116 165.332 52.9636C165.332 52.9156 165.344 52.8916 165.368 52.8916C165.664 52.8916 165.88 52.8716 166.016 52.8316C166.152 52.7916 166.244 52.7156 166.292 52.6036C166.34 52.4916 166.364 52.3116 166.364 52.0636V47.5156L162.632 51.5116V52.0636C162.632 52.3036 162.656 52.4836 162.704 52.6036C162.752 52.7156 162.844 52.7916 162.98 52.8316C163.116 52.8716 163.332 52.8916 163.628 52.8916C163.644 52.8916 163.652 52.9156 163.652 52.9636C163.652 53.0116 163.644 53.0356 163.628 53.0356C163.348 53.0356 163.124 53.0316 162.956 53.0236L161.912 53.0116L161.012 53.0236C160.852 53.0316 160.632 53.0356 160.352 53.0356C160.336 53.0356 160.328 53.0116 160.328 52.9636C160.328 52.9156 160.336 52.8916 160.352 52.8916C160.632 52.8916 160.836 52.8716 160.964 52.8316C161.092 52.7916 161.18 52.7156 161.228 52.6036C161.276 52.4836 161.3 52.3036 161.3 52.0636V46.5076C161.3 46.2676 161.276 46.0916 161.228 45.9796C161.18 45.8676 161.092 45.7916 160.964 45.7516C160.844 45.7036 160.648 45.6796 160.376 45.6796C160.352 45.6796 160.34 45.6556 160.34 45.6076C160.34 45.5596 160.352 45.5356 160.376 45.5356L161.024 45.5476C161.392 45.5636 161.688 45.5716 161.912 45.5716C162.216 45.5716 162.568 45.5636 162.968 45.5476L163.628 45.5356C163.644 45.5356 163.652 45.5596 163.652 45.6076C163.652 45.6556 163.644 45.6796 163.628 45.6796C163.34 45.6796 163.128 45.7036 162.992 45.7516C162.856 45.7996 162.76 45.8836 162.704 46.0036C162.656 46.1156 162.632 46.2916 162.632 46.5316V51.0196L166.364 47.0356V46.5316C166.364 46.2916 166.34 46.1156 166.292 46.0036C166.244 45.8836 166.152 45.7996 166.016 45.7516C165.88 45.7036 165.664 45.6796 165.368 45.6796C165.344 45.6796 165.332 45.6556 165.332 45.6076C165.332 45.5596 165.344 45.5356 165.368 45.5356L165.956 45.5476C166.356 45.5636 166.716 45.5716 167.036 45.5716C167.252 45.5716 167.56 45.5636 167.96 45.5476L168.632 45.5356C168.656 45.5356 168.668 45.5596 168.668 45.6076C168.668 45.6556 168.656 45.6796 168.632 45.6796C168.36 45.6796 168.16 45.7036 168.032 45.7516C167.904 45.7916 167.816 45.8676 167.768 45.9796C167.72 46.0916 167.696 46.2676 167.696 46.5076V52.0636C167.696 52.3036 167.72 52.4836 167.768 52.6036C167.816 52.7156 167.904 52.7916 168.032 52.8316C168.16 52.8716 168.36 52.8916 168.632 52.8916ZM171.608 52.0156C171.608 52.2716 171.636 52.4596 171.692 52.5796C171.748 52.6916 171.852 52.7716 172.004 52.8196C172.164 52.8676 172.416 52.8916 172.76 52.8916C172.784 52.8916 172.796 52.9156 172.796 52.9636C172.796 53.0116 172.784 53.0356 172.76 53.0356C172.432 53.0356 172.176 53.0316 171.992 53.0236L170.948 53.0116L170.072 53.0236C169.912 53.0316 169.696 53.0356 169.424 53.0356C169.4 53.0356 169.388 53.0116 169.388 52.9636C169.388 52.9156 169.4 52.8916 169.424 52.8916C169.68 52.8916 169.864 52.8716 169.976 52.8316C170.096 52.7916 170.176 52.7156 170.216 52.6036C170.256 52.4836 170.276 52.3036 170.276 52.0636V46.5076C170.276 46.2676 170.256 46.0916 170.216 45.9796C170.176 45.8676 170.096 45.7916 169.976 45.7516C169.856 45.7036 169.672 45.6796 169.424 45.6796C169.4 45.6796 169.388 45.6556 169.388 45.6076C169.388 45.5596 169.4 45.5356 169.424 45.5356L170.06 45.5476C170.428 45.5636 170.72 45.5716 170.936 45.5716C171.128 45.5716 171.356 45.5596 171.62 45.5356C171.724 45.5276 171.856 45.5196 172.016 45.5116C172.176 45.5036 172.36 45.4996 172.568 45.4996C173.384 45.4996 174.028 45.6716 174.5 46.0156C174.972 46.3516 175.208 46.8756 175.208 47.5876C175.208 48.0836 175.08 48.5036 174.824 48.8476C174.568 49.1916 174.236 49.4516 173.828 49.6276C173.428 49.8036 173.016 49.8916 172.592 49.8916C172.376 49.8916 172.188 49.8716 172.028 49.8316C172.012 49.8316 172.004 49.8116 172.004 49.7716C172.004 49.7476 172.008 49.7236 172.016 49.6996C172.032 49.6756 172.048 49.6676 172.064 49.6756C172.184 49.7076 172.32 49.7236 172.472 49.7236C172.84 49.7236 173.144 49.5516 173.384 49.2076C173.632 48.8636 173.756 48.3756 173.756 47.7436C173.756 47.1116 173.62 46.6236 173.348 46.2796C173.084 45.9356 172.696 45.7636 172.184 45.7636C171.96 45.7636 171.808 45.8156 171.728 45.9196C171.648 46.0236 171.608 46.2276 171.608 46.5316V52.0156ZM187.089 52.8916C187.113 52.8916 187.125 52.9156 187.125 52.9636C187.125 53.0116 187.113 53.0356 187.089 53.0356C186.817 53.0356 186.601 53.0316 186.441 53.0236L185.565 53.0116L184.569 53.0236C184.401 53.0316 184.177 53.0356 183.897 53.0356C183.873 53.0356 183.861 53.0116 183.861 52.9636C183.861 52.9156 183.873 52.8916 183.897 52.8916C184.169 52.8916 184.369 52.8716 184.497 52.8316C184.625 52.7916 184.709 52.7156 184.749 52.6036C184.797 52.4836 184.821 52.3036 184.821 52.0636V46.6516C184.821 46.3796 184.809 46.1996 184.785 46.1116C184.769 46.0236 184.725 45.9676 184.653 45.9436C184.581 45.9196 184.437 45.9076 184.221 45.9076H181.761C181.521 45.9076 181.361 45.9196 181.281 45.9436C181.201 45.9676 181.149 46.0236 181.125 46.1116C181.109 46.1996 181.101 46.3796 181.101 46.6516V52.0636C181.101 52.3116 181.121 52.4916 181.161 52.6036C181.209 52.7156 181.293 52.7916 181.413 52.8316C181.541 52.8716 181.745 52.8916 182.025 52.8916C182.049 52.8916 182.061 52.9156 182.061 52.9636C182.061 53.0116 182.049 53.0356 182.025 53.0356C181.745 53.0356 181.521 53.0316 181.353 53.0236L180.357 53.0116L179.469 53.0236C179.309 53.0316 179.093 53.0356 178.821 53.0356C178.805 53.0356 178.797 53.0116 178.797 52.9636C178.797 52.9156 178.805 52.8916 178.821 52.8916C179.101 52.8916 179.305 52.8716 179.433 52.8316C179.561 52.7916 179.649 52.7156 179.697 52.6036C179.745 52.4836 179.769 52.3036 179.769 52.0636V46.6516C179.769 46.2916 179.709 46.0396 179.589 45.8956C179.469 45.7516 179.221 45.6796 178.845 45.6796C178.821 45.6796 178.809 45.6556 178.809 45.6076C178.809 45.5596 178.821 45.5356 178.845 45.5356C179.117 45.5356 179.381 45.5396 179.637 45.5476C180.709 45.5636 181.833 45.5716 183.009 45.5716C184.073 45.5716 185.301 45.5596 186.693 45.5356H187.089C187.113 45.5356 187.125 45.5596 187.125 45.6076C187.125 45.6556 187.113 45.6796 187.089 45.6796C186.713 45.6796 186.461 45.7516 186.333 45.8956C186.213 46.0396 186.153 46.2916 186.153 46.6516V52.0636C186.153 52.3036 186.177 52.4836 186.225 52.6036C186.273 52.7156 186.361 52.7916 186.489 52.8316C186.617 52.8716 186.817 52.8916 187.089 52.8916ZM191.865 53.1796C191.121 53.1796 190.457 53.0076 189.873 52.6636C189.297 52.3116 188.849 51.8396 188.529 51.2476C188.217 50.6476 188.061 49.9956 188.061 49.2916C188.061 48.4676 188.269 47.7636 188.685 47.1796C189.101 46.5876 189.633 46.1436 190.281 45.8476C190.937 45.5516 191.605 45.4036 192.285 45.4036C193.045 45.4036 193.713 45.5836 194.289 45.9436C194.865 46.2956 195.305 46.7636 195.609 47.3476C195.921 47.9316 196.077 48.5516 196.077 49.2076C196.077 49.9356 195.885 50.6036 195.501 51.2116C195.117 51.8196 194.601 52.2996 193.953 52.6516C193.313 53.0036 192.617 53.1796 191.865 53.1796ZM192.261 52.8796C192.709 52.8796 193.109 52.7516 193.461 52.4956C193.821 52.2316 194.101 51.8516 194.301 51.3556C194.501 50.8516 194.601 50.2516 194.601 49.5556C194.601 48.8196 194.489 48.1636 194.265 47.5876C194.041 47.0036 193.717 46.5476 193.293 46.2196C192.869 45.8916 192.373 45.7276 191.805 45.7276C191.077 45.7276 190.517 46.0036 190.125 46.5556C189.733 47.0996 189.537 47.8636 189.537 48.8476C189.537 49.6236 189.653 50.3196 189.885 50.9356C190.125 51.5436 190.449 52.0196 190.857 52.3636C191.273 52.7076 191.741 52.8796 192.261 52.8796ZM204.126 52.8916C204.198 52.8916 204.238 52.8996 204.246 52.9156C204.262 52.9236 204.27 52.9636 204.27 53.0356C204.27 53.1636 204.258 53.3156 204.234 53.4916C204.17 54.0676 204.138 54.6156 204.138 55.1356C204.138 55.1756 204.114 55.1956 204.066 55.1956C204.018 55.1956 203.994 55.1756 203.994 55.1356C203.994 54.4716 203.79 53.9556 203.382 53.5876C202.974 53.2196 202.39 53.0356 201.63 53.0356H198.606C197.878 53.0356 197.362 53.1956 197.058 53.5156C196.754 53.8356 196.602 54.3756 196.602 55.1356C196.602 55.1756 196.578 55.1956 196.53 55.1956C196.482 55.1956 196.458 55.1756 196.458 55.1356C196.458 54.5916 196.434 54.1596 196.386 53.8396C196.346 53.5276 196.322 53.3516 196.314 53.3116C196.282 53.1036 196.266 52.9876 196.266 52.9636C196.266 52.8916 196.27 52.8516 196.278 52.8436C196.294 52.8276 196.338 52.8196 196.41 52.8196C197.002 52.8196 197.514 52.4596 197.946 51.7396C198.386 51.0116 198.718 50.1556 198.942 49.1716C199.166 48.1876 199.278 47.3436 199.278 46.6396C199.278 46.3436 199.166 46.1116 198.942 45.9436C198.718 45.7676 198.398 45.6796 197.982 45.6796C197.958 45.6796 197.946 45.6556 197.946 45.6076C197.946 45.5596 197.958 45.5356 197.982 45.5356H203.898C203.922 45.5356 203.934 45.5596 203.934 45.6076C203.934 45.6556 203.922 45.6796 203.898 45.6796C203.626 45.6796 203.426 45.7036 203.298 45.7516C203.17 45.7916 203.082 45.8676 203.034 45.9796C202.986 46.0916 202.962 46.2676 202.962 46.5076V52.0636C202.962 52.3756 202.978 52.5796 203.01 52.6756C203.042 52.7716 203.126 52.8316 203.262 52.8556C203.406 52.8796 203.694 52.8916 204.126 52.8916ZM201.63 46.5316C201.63 46.2836 201.618 46.1196 201.594 46.0396C201.578 45.9516 201.534 45.8996 201.462 45.8836C201.39 45.8596 201.246 45.8476 201.03 45.8476H200.334C200.126 45.8476 199.978 45.8676 199.89 45.9076C199.81 45.9476 199.754 46.0196 199.722 46.1236C199.698 46.2196 199.674 46.3996 199.65 46.6636C199.65 46.7196 199.642 46.8276 199.626 46.9876C199.506 48.1236 199.29 49.2476 198.978 50.3596C198.674 51.4636 198.226 52.2476 197.634 52.7116H200.97C201.018 52.7116 201.126 52.7116 201.294 52.7116C201.47 52.7116 201.57 52.6676 201.594 52.5796C201.618 52.4836 201.63 52.3036 201.63 52.0396V46.5316ZM215.448 52.8916C215.472 52.8916 215.484 52.9156 215.484 52.9636C215.484 53.0116 215.472 53.0356 215.448 53.0356H213.6C213.496 53.0356 213.4 53.0036 213.312 52.9396C213.232 52.8756 213.088 52.7116 212.88 52.4476C212.672 52.1756 212.332 51.6996 211.86 51.0196L211.536 50.5636C211.256 50.1556 211.048 49.8716 210.912 49.7116C210.776 49.5436 210.632 49.4276 210.48 49.3636C210.336 49.2916 210.144 49.2556 209.904 49.2556V52.0636C209.904 52.3036 209.924 52.4836 209.964 52.6036C210.012 52.7156 210.1 52.7916 210.228 52.8316C210.356 52.8716 210.556 52.8916 210.828 52.8916C210.852 52.8916 210.864 52.9156 210.864 52.9636C210.864 53.0116 210.852 53.0356 210.828 53.0356C210.548 53.0356 210.324 53.0316 210.156 53.0236L209.16 53.0116L208.284 53.0236C208.124 53.0316 207.908 53.0356 207.636 53.0356C207.612 53.0356 207.6 53.0116 207.6 52.9636C207.6 52.9156 207.612 52.8916 207.636 52.8916C207.908 52.8916 208.108 52.8716 208.236 52.8316C208.364 52.7916 208.452 52.7156 208.5 52.6036C208.548 52.4836 208.572 52.3036 208.572 52.0636V46.5076C208.572 46.2676 208.548 46.0916 208.5 45.9796C208.452 45.8676 208.364 45.7916 208.236 45.7516C208.116 45.7036 207.92 45.6796 207.648 45.6796C207.624 45.6796 207.612 45.6556 207.612 45.6076C207.612 45.5596 207.624 45.5356 207.648 45.5356L208.284 45.5476C208.652 45.5636 208.944 45.5716 209.16 45.5716C209.432 45.5716 209.768 45.5636 210.168 45.5476L210.828 45.5356C210.852 45.5356 210.864 45.5596 210.864 45.6076C210.864 45.6556 210.852 45.6796 210.828 45.6796C210.564 45.6796 210.368 45.7036 210.24 45.7516C210.112 45.7996 210.024 45.8836 209.976 46.0036C209.928 46.1156 209.904 46.2916 209.904 46.5316V49.0516C210.12 49.0436 210.392 49.0396 210.72 49.0396L211.98 47.3116C212.308 46.8556 212.472 46.4756 212.472 46.1716C212.472 46.0196 212.428 45.8996 212.34 45.8116C212.252 45.7236 212.132 45.6796 211.98 45.6796C211.964 45.6796 211.956 45.6556 211.956 45.6076C211.956 45.5596 211.964 45.5356 211.98 45.5356L212.532 45.5476C212.884 45.5636 213.196 45.5716 213.468 45.5716C213.78 45.5716 214.104 45.5636 214.44 45.5476L214.956 45.5356C214.98 45.5356 214.992 45.5596 214.992 45.6076C214.992 45.6556 214.98 45.6796 214.956 45.6796C214.604 45.6796 214.208 45.8076 213.768 46.0636C213.328 46.3196 212.956 46.6396 212.652 47.0236L211.02 49.0516C211.332 49.0676 211.588 49.1276 211.788 49.2316C211.988 49.3276 212.184 49.4836 212.376 49.6996C212.576 49.9156 212.856 50.2756 213.216 50.7796L213.432 51.0796C213.768 51.5436 214.028 51.8916 214.212 52.1236C214.404 52.3556 214.6 52.5396 214.8 52.6756C215 52.8116 215.216 52.8836 215.448 52.8916ZM216.144 53.1796C215.92 53.1796 215.74 53.1276 215.604 53.0236C215.476 52.9196 215.412 52.7676 215.412 52.5676C215.412 52.3756 215.468 52.2356 215.58 52.1476C215.7 52.0596 215.848 52.0156 216.024 52.0156H216.276C216.708 52.0156 217.076 51.7516 217.38 51.2236C217.692 50.6956 217.924 50.0316 218.076 49.2316C218.228 48.4236 218.304 47.6156 218.304 46.8076C218.304 46.3916 218.224 46.0996 218.064 45.9316C217.904 45.7636 217.592 45.6796 217.128 45.6796C217.104 45.6796 217.092 45.6556 217.092 45.6076C217.092 45.5596 217.104 45.5356 217.128 45.5356H223.2C223.216 45.5356 223.224 45.5596 223.224 45.6076C223.224 45.6556 223.216 45.6796 223.2 45.6796C222.928 45.6796 222.724 45.7036 222.588 45.7516C222.46 45.7916 222.372 45.8676 222.324 45.9796C222.284 46.0916 222.264 46.2676 222.264 46.5076V52.0636C222.264 52.3036 222.284 52.4836 222.324 52.6036C222.372 52.7156 222.46 52.7916 222.588 52.8316C222.716 52.8716 222.92 52.8916 223.2 52.8916C223.216 52.8916 223.224 52.9156 223.224 52.9636C223.224 53.0116 223.216 53.0356 223.2 53.0356C222.928 53.0356 222.712 53.0316 222.552 53.0236L221.664 53.0116L220.68 53.0236C220.52 53.0316 220.292 53.0356 219.996 53.0356C219.98 53.0356 219.972 53.0116 219.972 52.9636C219.972 52.9156 219.98 52.8916 219.996 52.8916C220.276 52.8916 220.476 52.8716 220.596 52.8316C220.724 52.7916 220.808 52.7156 220.848 52.6036C220.896 52.4916 220.92 52.3116 220.92 52.0636V46.6516C220.92 46.3796 220.908 46.1996 220.884 46.1116C220.868 46.0236 220.824 45.9676 220.752 45.9436C220.68 45.9196 220.536 45.9076 220.32 45.9076H219.528C219.288 45.9076 219.108 45.9276 218.988 45.9676C218.868 46.0076 218.78 46.0916 218.724 46.2196C218.676 46.3396 218.652 46.5356 218.652 46.8076C218.652 47.6556 218.58 48.5636 218.436 49.5316C218.3 50.4996 218.044 51.3516 217.668 52.0876C217.3 52.8156 216.792 53.1796 216.144 53.1796ZM231.906 45.4036C232.634 45.4036 233.274 45.5836 233.826 45.9436C234.378 46.2956 234.802 46.7636 235.098 47.3476C235.402 47.9316 235.554 48.5516 235.554 49.2076C235.554 49.9356 235.366 50.6036 234.99 51.2116C234.622 51.8196 234.126 52.2996 233.502 52.6516C232.878 53.0036 232.202 53.1796 231.474 53.1796C230.754 53.1796 230.114 53.0076 229.554 52.6636C229.002 52.3116 228.574 51.8396 228.27 51.2476C227.966 50.6556 227.814 50.0076 227.814 49.3036H226.218V52.0636C226.218 52.3036 226.242 52.4836 226.29 52.6036C226.338 52.7156 226.43 52.7916 226.566 52.8316C226.702 52.8716 226.918 52.8916 227.214 52.8916C227.23 52.8916 227.238 52.9156 227.238 52.9636C227.238 53.0116 227.23 53.0356 227.214 53.0356C226.934 53.0356 226.71 53.0316 226.542 53.0236L225.498 53.0116L224.598 53.0236C224.438 53.0316 224.218 53.0356 223.938 53.0356C223.922 53.0356 223.914 53.0116 223.914 52.9636C223.914 52.9156 223.922 52.8916 223.938 52.8916C224.218 52.8916 224.422 52.8716 224.55 52.8316C224.678 52.7916 224.766 52.7156 224.814 52.6036C224.862 52.4836 224.886 52.3036 224.886 52.0636V46.5076C224.886 46.2676 224.862 46.0916 224.814 45.9796C224.766 45.8676 224.678 45.7916 224.55 45.7516C224.43 45.7036 224.234 45.6796 223.962 45.6796C223.938 45.6796 223.926 45.6556 223.926 45.6076C223.926 45.5596 223.938 45.5356 223.962 45.5356L224.61 45.5476C224.978 45.5636 225.274 45.5716 225.498 45.5716C225.802 45.5716 226.154 45.5636 226.554 45.5476L227.214 45.5356C227.23 45.5356 227.238 45.5596 227.238 45.6076C227.238 45.6556 227.23 45.6796 227.214 45.6796C226.926 45.6796 226.714 45.7036 226.578 45.7516C226.442 45.7996 226.346 45.8836 226.29 46.0036C226.242 46.1156 226.218 46.2916 226.218 46.5316V48.9676H227.826C227.882 48.2156 228.114 47.5716 228.522 47.0356C228.938 46.4916 229.446 46.0836 230.046 45.8116C230.654 45.5396 231.274 45.4036 231.906 45.4036ZM231.738 52.8796C232.162 52.8796 232.538 52.7516 232.866 52.4956C233.202 52.2316 233.462 51.8516 233.646 51.3556C233.838 50.8516 233.934 50.2516 233.934 49.5556C233.934 48.8196 233.826 48.1636 233.61 47.5876C233.402 47.0036 233.098 46.5476 232.698 46.2196C232.298 45.8916 231.826 45.7276 231.282 45.7276C230.594 45.7276 230.066 46.0036 229.698 46.5556C229.33 47.0996 229.146 47.8636 229.146 48.8476C229.146 49.6236 229.258 50.3196 229.482 50.9356C229.706 51.5436 230.014 52.0196 230.406 52.3636C230.806 52.7076 231.25 52.8796 231.738 52.8796ZM243.413 52.8916C243.429 52.8916 243.437 52.9156 243.437 52.9636C243.437 53.0116 243.429 53.0356 243.413 53.0356C243.141 53.0356 242.925 53.0316 242.765 53.0236L241.877 53.0116L240.893 53.0236C240.725 53.0316 240.497 53.0356 240.209 53.0356C240.193 53.0356 240.185 53.0116 240.185 52.9636C240.185 52.9156 240.193 52.8916 240.209 52.8916C240.489 52.8916 240.689 52.8716 240.809 52.8316C240.937 52.7916 241.021 52.7156 241.061 52.6036C241.109 52.4916 241.133 52.3116 241.133 52.0636V49.5916C240.581 49.9196 239.989 50.0836 239.357 50.0836C238.653 50.0836 238.081 49.9076 237.641 49.5556C237.201 49.2036 236.981 48.7316 236.981 48.1396V46.5076C236.981 46.2676 236.961 46.0916 236.921 45.9796C236.889 45.8676 236.817 45.7916 236.705 45.7516C236.601 45.7036 236.433 45.6796 236.201 45.6796C236.177 45.6796 236.165 45.6556 236.165 45.6076C236.165 45.5596 236.177 45.5356 236.201 45.5356C236.321 45.5356 236.413 45.5396 236.477 45.5476C236.701 45.5636 237.065 45.5716 237.569 45.5716C237.977 45.5716 238.357 45.5636 238.709 45.5476C238.813 45.5396 238.945 45.5356 239.105 45.5356C239.121 45.5356 239.129 45.5596 239.129 45.6076C239.129 45.6556 239.121 45.6796 239.105 45.6796C238.873 45.6796 238.701 45.7036 238.589 45.7516C238.485 45.7996 238.413 45.8836 238.373 46.0036C238.333 46.1156 238.313 46.2916 238.313 46.5316V47.7196C238.313 48.3996 238.429 48.9156 238.661 49.2676C238.901 49.6196 239.257 49.7956 239.729 49.7956C240.193 49.7956 240.661 49.6636 241.133 49.3996V46.5316C241.133 46.2916 241.113 46.1156 241.073 46.0036C241.041 45.8836 240.969 45.7996 240.857 45.7516C240.753 45.7036 240.585 45.6796 240.353 45.6796C240.329 45.6796 240.317 45.6556 240.317 45.6076C240.317 45.5596 240.329 45.5356 240.353 45.5356L240.965 45.5476C241.333 45.5636 241.637 45.5716 241.877 45.5716C242.101 45.5716 242.397 45.5636 242.765 45.5476L243.413 45.5356C243.429 45.5356 243.437 45.5596 243.437 45.6076C243.437 45.6556 243.429 45.6796 243.413 45.6796C243.133 45.6796 242.929 45.7036 242.801 45.7516C242.673 45.7916 242.585 45.8676 242.537 45.9796C242.489 46.0916 242.465 46.2676 242.465 46.5076V52.0636C242.465 52.3036 242.489 52.4836 242.537 52.6036C242.585 52.7156 242.673 52.7916 242.801 52.8316C242.929 52.8716 243.133 52.8916 243.413 52.8916Z" fill="white"/>
<path d="M88.194 34.7236C88.246 34.7236 88.272 34.7756 88.272 34.8796C88.272 34.9836 88.246 35.0356 88.194 35.0356C87.6047 35.0356 87.1367 35.027 86.79 35.0096L84.892 34.9836L82.734 35.0096C82.37 35.027 81.8847 35.0356 81.278 35.0356C81.226 35.0356 81.2 34.9836 81.2 34.8796C81.2 34.7756 81.226 34.7236 81.278 34.7236C81.8673 34.7236 82.3007 34.6803 82.578 34.5936C82.8553 34.507 83.0373 34.3423 83.124 34.0996C83.228 33.8396 83.28 33.4496 83.28 32.9296V21.2036C83.28 20.6143 83.254 20.2243 83.202 20.0336C83.1673 19.843 83.072 19.7216 82.916 19.6696C82.76 19.6176 82.448 19.5916 81.98 19.5916H76.65C76.13 19.5916 75.7833 19.6176 75.61 19.6696C75.4367 19.7216 75.324 19.843 75.272 20.0336C75.2373 20.2243 75.22 20.6143 75.22 21.2036V32.9296C75.22 33.467 75.2633 33.857 75.35 34.0996C75.454 34.3423 75.636 34.507 75.896 34.5936C76.1733 34.6803 76.6153 34.7236 77.222 34.7236C77.274 34.7236 77.3 34.7756 77.3 34.8796C77.3 34.9836 77.274 35.0356 77.222 35.0356C76.6153 35.0356 76.13 35.027 75.766 35.0096L73.608 34.9836L71.684 35.0096C71.3373 35.027 70.8693 35.0356 70.28 35.0356C70.2453 35.0356 70.228 34.9836 70.228 34.8796C70.228 34.7756 70.2453 34.7236 70.28 34.7236C70.8867 34.7236 71.3287 34.6803 71.606 34.5936C71.8833 34.507 72.074 34.3423 72.178 34.0996C72.282 33.8396 72.334 33.4496 72.334 32.9296V21.2036C72.334 20.4236 72.204 19.8776 71.944 19.5656C71.684 19.2536 71.1467 19.0976 70.332 19.0976C70.28 19.0976 70.254 19.0456 70.254 18.9416C70.254 18.8376 70.28 18.7856 70.332 18.7856C70.9213 18.7856 71.4933 18.7943 72.048 18.8116C74.3707 18.8463 76.806 18.8636 79.354 18.8636C81.6593 18.8636 84.32 18.8376 87.336 18.7856H88.194C88.246 18.7856 88.272 18.8376 88.272 18.9416C88.272 19.0456 88.246 19.0976 88.194 19.0976C87.3793 19.0976 86.8333 19.2536 86.556 19.5656C86.296 19.8776 86.166 20.4236 86.166 21.2036V32.9296C86.166 33.4496 86.218 33.8396 86.322 34.0996C86.426 34.3423 86.6167 34.507 86.894 34.5936C87.1713 34.6803 87.6047 34.7236 88.194 34.7236ZM96.1754 35.3476C94.9447 35.3476 93.8441 35.0616 92.8734 34.4896C91.9027 33.9003 91.1487 33.1203 90.6114 32.1496C90.0741 31.1616 89.8054 30.0956 89.8054 28.9516C89.8054 27.6343 90.1434 26.4903 90.8194 25.5196C91.5127 24.549 92.3881 23.8123 93.4454 23.3096C94.5201 22.807 95.6207 22.5556 96.7474 22.5556C97.9781 22.5556 99.0614 22.859 99.9974 23.4656C100.951 24.055 101.687 24.835 102.207 25.8056C102.727 26.759 102.987 27.7643 102.987 28.8216C102.987 29.983 102.684 31.0663 102.077 32.0716C101.471 33.0596 100.647 33.857 99.6074 34.4636C98.5674 35.053 97.4234 35.3476 96.1754 35.3476ZM96.7734 34.7496C97.7441 34.7496 98.5241 34.273 99.1134 33.3196C99.7201 32.3663 100.023 31.049 100.023 29.3676C100.023 28.2236 99.8501 27.1836 99.5034 26.2476C99.1567 25.3116 98.6627 24.575 98.0214 24.0376C97.3974 23.483 96.6694 23.2056 95.8374 23.2056C94.8321 23.2056 94.0694 23.6216 93.5494 24.4536C93.0294 25.2856 92.7694 26.5163 92.7694 28.1456C92.7694 29.3763 92.9427 30.503 93.2894 31.5256C93.6534 32.531 94.1387 33.3196 94.7454 33.8916C95.3521 34.4636 96.0281 34.7496 96.7734 34.7496ZM116.142 34.7236C116.281 34.7236 116.367 34.741 116.402 34.7756C116.437 34.8103 116.454 34.897 116.454 35.0356C116.454 35.365 116.428 35.7203 116.376 36.1016C116.255 37.107 116.194 38.069 116.194 38.9876C116.194 39.0743 116.142 39.1176 116.038 39.1176C115.934 39.1176 115.882 39.0743 115.882 38.9876C115.882 37.705 115.596 36.717 115.024 36.0236C114.452 35.3476 113.629 35.0096 112.554 35.0096H107.146C106.071 35.0096 105.257 35.3476 104.702 36.0236C104.147 36.6996 103.87 37.6876 103.87 38.9876C103.87 39.0743 103.818 39.1176 103.714 39.1176C103.61 39.1176 103.558 39.0743 103.558 38.9876C103.558 37.965 103.497 37.0116 103.376 36.1276C103.359 36.0063 103.341 35.8416 103.324 35.6336C103.307 35.4256 103.298 35.2263 103.298 35.0356C103.298 34.8796 103.307 34.7843 103.324 34.7496C103.359 34.715 103.445 34.6976 103.584 34.6976C104.728 34.6976 105.673 33.9003 106.418 32.3056C107.163 30.711 107.649 28.4143 107.874 25.4156C107.891 25.2423 107.9 25.017 107.9 24.7396C107.9 24.0983 107.77 23.6823 107.51 23.4916C107.25 23.2836 106.756 23.1796 106.028 23.1796C105.976 23.1796 105.95 23.1276 105.95 23.0236C105.95 22.9196 105.976 22.8676 106.028 22.8676H116.246C116.281 22.8676 116.298 22.9196 116.298 23.0236C116.298 23.1276 116.281 23.1796 116.246 23.1796C115.761 23.1796 115.397 23.2316 115.154 23.3356C114.911 23.4396 114.747 23.6216 114.66 23.8816C114.573 24.1243 114.53 24.5056 114.53 25.0256V32.9296C114.53 33.6056 114.547 34.0476 114.582 34.2556C114.634 34.4636 114.755 34.5936 114.946 34.6456C115.137 34.6976 115.535 34.7236 116.142 34.7236ZM112.112 24.9736C112.112 24.4016 112.095 24.029 112.06 23.8556C112.025 23.6823 111.947 23.5783 111.826 23.5436C111.722 23.509 111.462 23.4916 111.046 23.4916H110.214C109.711 23.4916 109.365 23.5176 109.174 23.5696C109.001 23.6216 108.879 23.7343 108.81 23.9076C108.758 24.081 108.715 24.419 108.68 24.9216C108.472 27.3483 108.134 29.3503 107.666 30.9276C107.215 32.4876 106.6 33.6316 105.82 34.3596H110.032C110.795 34.3596 111.289 34.3423 111.514 34.3076C111.739 34.273 111.895 34.169 111.982 33.9956C112.069 33.805 112.112 33.4496 112.112 32.9296V24.9736ZM119.914 35.3216C119.428 35.3216 119.038 35.183 118.744 34.9056C118.466 34.611 118.328 34.221 118.328 33.7356C118.328 33.285 118.466 32.921 118.744 32.6436C119.038 32.3663 119.428 32.2276 119.914 32.2276C120.399 32.2276 120.772 32.3663 121.032 32.6436C121.309 32.9036 121.448 33.2676 121.448 33.7356C121.448 34.2383 121.309 34.6283 121.032 34.9056C120.772 35.183 120.399 35.3216 119.914 35.3216ZM140.142 34.7236C140.194 34.7236 140.22 34.7756 140.22 34.8796C140.22 34.9836 140.194 35.0356 140.142 35.0356H136.138C135.913 35.0356 135.705 34.9663 135.514 34.8276C135.341 34.689 135.029 34.3336 134.578 33.7616C134.128 33.1723 133.391 32.141 132.368 30.6676L131.666 29.6796C131.06 28.7956 130.609 28.1803 130.314 27.8336C130.02 27.4696 129.708 27.2183 129.378 27.0796C129.066 26.9236 128.65 26.8456 128.13 26.8456V32.9296C128.13 33.4496 128.174 33.8396 128.26 34.0996C128.364 34.3423 128.555 34.507 128.832 34.5936C129.11 34.6803 129.543 34.7236 130.132 34.7236C130.184 34.7236 130.21 34.7756 130.21 34.8796C130.21 34.9836 130.184 35.0356 130.132 35.0356C129.526 35.0356 129.04 35.027 128.676 35.0096L126.518 34.9836L124.62 35.0096C124.274 35.027 123.806 35.0356 123.216 35.0356C123.164 35.0356 123.138 34.9836 123.138 34.8796C123.138 34.7756 123.164 34.7236 123.216 34.7236C123.806 34.7236 124.239 34.6803 124.516 34.5936C124.794 34.507 124.984 34.3423 125.088 34.0996C125.192 33.8396 125.244 33.4496 125.244 32.9296V20.8916C125.244 20.3716 125.192 19.9903 125.088 19.7476C124.984 19.505 124.794 19.3403 124.516 19.2536C124.256 19.1496 123.832 19.0976 123.242 19.0976C123.19 19.0976 123.164 19.0456 123.164 18.9416C123.164 18.8376 123.19 18.7856 123.242 18.7856L124.62 18.8116C125.418 18.8463 126.05 18.8636 126.518 18.8636C127.108 18.8636 127.836 18.8463 128.702 18.8116L130.132 18.7856C130.184 18.7856 130.21 18.8376 130.21 18.9416C130.21 19.0456 130.184 19.0976 130.132 19.0976C129.56 19.0976 129.136 19.1496 128.858 19.2536C128.581 19.3576 128.39 19.5396 128.286 19.7996C128.182 20.0423 128.13 20.4236 128.13 20.9436V26.4036C128.598 26.3863 129.188 26.3776 129.898 26.3776L132.628 22.6336C133.339 21.6456 133.694 20.8223 133.694 20.1636C133.694 19.8343 133.599 19.5743 133.408 19.3836C133.218 19.193 132.958 19.0976 132.628 19.0976C132.594 19.0976 132.576 19.0456 132.576 18.9416C132.576 18.8376 132.594 18.7856 132.628 18.7856L133.824 18.8116C134.587 18.8463 135.263 18.8636 135.852 18.8636C136.528 18.8636 137.23 18.8463 137.958 18.8116L139.076 18.7856C139.128 18.7856 139.154 18.8376 139.154 18.9416C139.154 19.0456 139.128 19.0976 139.076 19.0976C138.314 19.0976 137.456 19.375 136.502 19.9296C135.549 20.4843 134.743 21.1776 134.084 22.0096L130.548 26.4036C131.224 26.4383 131.779 26.5683 132.212 26.7936C132.646 27.0016 133.07 27.3396 133.486 27.8076C133.92 28.2756 134.526 29.0556 135.306 30.1476L135.774 30.7976C136.502 31.803 137.066 32.557 137.464 33.0596C137.88 33.5623 138.305 33.961 138.738 34.2556C139.172 34.5503 139.64 34.7063 140.142 34.7236ZM147.37 23.3616C146.868 23.3616 146.512 23.3963 146.304 23.4656C146.096 23.535 145.949 23.6736 145.862 23.8816C145.776 24.0896 145.706 24.4363 145.654 24.9216L145.576 25.5456C145.368 27.435 145.134 29.0296 144.874 30.3296C144.632 31.6296 144.233 32.7823 143.678 33.7876C143.124 34.7756 142.387 35.2696 141.468 35.2696C141.035 35.2696 140.688 35.1656 140.428 34.9576C140.168 34.7496 140.038 34.455 140.038 34.0736C140.038 33.675 140.168 33.3716 140.428 33.1636C140.688 32.9383 141.009 32.8256 141.39 32.8256C142.413 32.8256 143.21 32.2363 143.782 31.0576C144.372 29.8616 144.779 27.981 145.004 25.4156C145.022 25.2423 145.03 25.017 145.03 24.7396C145.03 24.1156 144.9 23.6996 144.64 23.4916C144.38 23.2836 143.886 23.1796 143.158 23.1796C143.124 23.1796 143.106 23.1276 143.106 23.0236C143.106 22.9196 143.124 22.8676 143.158 22.8676H153.558C153.61 22.8676 153.636 22.9196 153.636 23.0236C153.636 23.1276 153.61 23.1796 153.558 23.1796C153.073 23.1796 152.709 23.2316 152.466 23.3356C152.241 23.4223 152.085 23.587 151.998 23.8296C151.912 24.0723 151.868 24.4536 151.868 24.9736V32.9296C151.868 33.4496 151.912 33.8396 151.998 34.0996C152.085 34.3423 152.241 34.507 152.466 34.5936C152.692 34.6803 153.056 34.7236 153.558 34.7236C153.61 34.7236 153.636 34.7756 153.636 34.8796C153.636 34.9836 153.61 35.0356 153.558 35.0356C153.021 35.0356 152.605 35.027 152.31 35.0096L150.594 34.9836L148.826 35.0096C148.532 35.027 148.124 35.0356 147.604 35.0356C147.552 35.0356 147.526 34.9836 147.526 34.8796C147.526 34.7756 147.552 34.7236 147.604 34.7236C148.09 34.7236 148.445 34.6803 148.67 34.5936C148.896 34.507 149.052 34.3423 149.138 34.0996C149.225 33.8396 149.268 33.4496 149.268 32.9296V25.0256C149.268 24.3496 149.173 23.9076 148.982 23.6996C148.792 23.4743 148.393 23.3616 147.786 23.3616H147.37ZM169.123 22.5556C170.336 22.5556 171.411 22.859 172.347 23.4656C173.3 24.055 174.037 24.835 174.557 25.8056C175.077 26.759 175.337 27.7643 175.337 28.8216C175.337 29.983 175.034 31.0663 174.427 32.0716C173.82 33.0596 172.997 33.857 171.957 34.4636C170.934 35.053 169.808 35.3476 168.577 35.3476C167.416 35.3476 166.376 35.079 165.457 34.5416C164.556 33.987 163.845 33.2416 163.325 32.3056C162.805 31.3696 162.519 30.347 162.467 29.2376H159.451V32.9296C159.451 33.4496 159.494 33.831 159.581 34.0736C159.668 34.3163 159.824 34.4896 160.049 34.5936C160.292 34.6803 160.656 34.7236 161.141 34.7236C161.176 34.7236 161.193 34.7756 161.193 34.8796C161.193 34.9836 161.176 35.0356 161.141 35.0356C160.604 35.0356 160.188 35.027 159.893 35.0096L158.151 34.9836L156.461 35.0096C156.149 35.027 155.716 35.0356 155.161 35.0356C155.126 35.0356 155.109 34.9836 155.109 34.8796C155.109 34.7756 155.126 34.7236 155.161 34.7236C155.664 34.7236 156.028 34.6803 156.253 34.5936C156.496 34.507 156.66 34.3423 156.747 34.0996C156.834 33.8396 156.877 33.4496 156.877 32.9296V24.9736C156.877 24.4536 156.834 24.0723 156.747 23.8296C156.66 23.587 156.496 23.4223 156.253 23.3356C156.028 23.2316 155.681 23.1796 155.213 23.1796C155.161 23.1796 155.135 23.1276 155.135 23.0236C155.135 22.9196 155.161 22.8676 155.213 22.8676L156.461 22.8936C157.154 22.9283 157.718 22.9456 158.151 22.9456C158.619 22.9456 159.2 22.9283 159.893 22.8936L161.141 22.8676C161.176 22.8676 161.193 22.9196 161.193 23.0236C161.193 23.1276 161.176 23.1796 161.141 23.1796C160.448 23.1796 159.988 23.301 159.763 23.5436C159.555 23.7863 159.451 24.2803 159.451 25.0256V28.5616H162.467C162.536 27.3136 162.9 26.239 163.559 25.3376C164.235 24.419 165.067 23.7256 166.055 23.2576C167.06 22.7896 168.083 22.5556 169.123 22.5556ZM169.201 34.7496C170.137 34.7496 170.9 34.273 171.489 33.3196C172.078 32.349 172.373 31.075 172.373 29.4976C172.373 28.319 172.2 27.253 171.853 26.2996C171.506 25.329 171.021 24.575 170.397 24.0376C169.79 23.483 169.088 23.2056 168.291 23.2056C167.338 23.2056 166.618 23.613 166.133 24.4276C165.665 25.225 165.431 26.4123 165.431 27.9896C165.431 29.307 165.596 30.477 165.925 31.4996C166.254 32.5223 166.705 33.3196 167.277 33.8916C167.849 34.4636 168.49 34.7496 169.201 34.7496ZM190.259 34.7236C190.294 34.7236 190.311 34.7756 190.311 34.8796C190.311 34.9836 190.294 35.0356 190.259 35.0356C189.705 35.0356 189.271 35.027 188.959 35.0096L187.269 34.9836L185.527 35.0096C185.233 35.027 184.825 35.0356 184.305 35.0356C184.253 35.0356 184.227 34.9836 184.227 34.8796C184.227 34.7756 184.253 34.7236 184.305 34.7236C184.791 34.7236 185.146 34.6803 185.371 34.5936C185.597 34.4896 185.753 34.3163 185.839 34.0736C185.926 33.831 185.969 33.4496 185.969 32.9296V28.4056C184.6 29.9136 183.17 30.6676 181.679 30.6676C180.57 30.6676 179.686 30.3556 179.027 29.7316C178.369 29.0903 178.039 28.1543 178.039 26.9236V24.9736C178.039 24.2976 177.901 23.8296 177.623 23.5696C177.346 23.3096 177.008 23.1796 176.609 23.1796C176.557 23.1796 176.531 23.1276 176.531 23.0236C176.531 22.9196 176.557 22.8676 176.609 22.8676L177.753 22.8936C178.481 22.9283 178.993 22.9456 179.287 22.9456C179.599 22.9456 180.137 22.9283 180.899 22.8936L182.173 22.8676C182.208 22.8676 182.225 22.9196 182.225 23.0236C182.225 23.1276 182.208 23.1796 182.173 23.1796C181.636 23.1796 181.211 23.3183 180.899 23.5956C180.587 23.8556 180.431 24.3323 180.431 25.0256V26.3256C180.431 27.331 180.631 28.0936 181.029 28.6136C181.445 29.1163 182.043 29.3676 182.823 29.3676C183.326 29.3676 183.855 29.2376 184.409 28.9776C184.964 28.7176 185.484 28.3536 185.969 27.8856V25.0256C185.969 24.2803 185.857 23.7863 185.631 23.5436C185.423 23.301 184.981 23.1796 184.305 23.1796C184.253 23.1796 184.227 23.1276 184.227 23.0236C184.227 22.9196 184.253 22.8676 184.305 22.8676L185.527 22.8936C186.255 22.9283 186.836 22.9456 187.269 22.9456C187.703 22.9456 188.266 22.9283 188.959 22.8936L190.259 22.8676C190.294 22.8676 190.311 22.9196 190.311 23.0236C190.311 23.1276 190.294 23.1796 190.259 23.1796C189.774 23.1796 189.41 23.2316 189.167 23.3356C188.925 23.4223 188.76 23.587 188.673 23.8296C188.587 24.0723 188.543 24.4536 188.543 24.9736V32.9296C188.543 33.4496 188.587 33.8396 188.673 34.0996C188.76 34.3423 188.916 34.507 189.141 34.5936C189.384 34.6803 189.757 34.7236 190.259 34.7236Z" fill="#E9CF66"/>
<path d="M32.924 31.1V39.5H32.312V31.652H26.624V39.5H26.012V31.1H32.924ZM35.6375 39.548C35.5015 39.548 35.3815 39.5 35.2775 39.404C35.1815 39.3 35.1335 39.176 35.1335 39.032C35.1335 38.888 35.1815 38.768 35.2775 38.672C35.3815 38.576 35.5015 38.528 35.6375 38.528C35.7735 38.528 35.8895 38.576 35.9855 38.672C36.0895 38.768 36.1415 38.888 36.1415 39.032C36.1415 39.176 36.0895 39.3 35.9855 39.404C35.8895 39.5 35.7735 39.548 35.6375 39.548ZM40.9798 35.516H38.9638V39.5H38.3518V31.1H38.9638V34.964H40.9918L44.0038 31.1H44.6878L41.4718 35.192L44.9038 39.5H44.1838L40.9798 35.516Z" fill="#E9CF66"/>
</svg>
