<svg width="73" height="99" viewBox="0 0 73 99" fill="none" xmlns="http://www.w3.org/2000/svg">
<path d="M24.0694 85.6003C24.0694 88.9634 24.4917 91.4331 25.3362 93.0096C26.2863 94.4809 28.0282 95.5318 30.5618 96.1624C33.201 96.793 37.3181 97.1083 42.9132 97.1083C43.2299 97.1083 43.3883 97.4236 43.3883 98.0541C43.3883 98.6847 43.2299 99 42.9132 99C38.585 99 35.2068 98.9474 32.7787 98.8424L19.0022 98.6847L8.39262 98.8424C6.38684 98.9474 3.69487 99 0.316703 99C0.105568 99 0 98.6847 0 98.0541C0 97.4236 0.105568 97.1083 0.316703 97.1083C4.32827 97.1083 7.23138 96.8455 9.02603 96.3201C10.9262 95.7946 12.1931 94.7962 12.8265 93.3248C13.4599 91.7484 13.7766 89.3838 13.7766 86.2309V13.242C13.7766 10.0892 13.4599 7.77707 12.8265 6.30574C12.1931 4.83439 10.9262 3.83598 9.02603 3.3105C7.23138 2.67993 4.32827 2.36465 0.316703 2.36465C0.105568 2.36465 0 2.04936 0 1.41879C0 0.788219 0.105568 0.472933 0.316703 0.472933L8.23427 0.630574C12.6681 0.840763 16.2046 0.945857 18.8438 0.945857C21.483 0.945857 24.4389 0.788216 27.7115 0.472933C28.9783 0.472933 30.9841 0.420383 33.7289 0.315283C36.4736 0.105094 38.8489 0 40.8547 0C50.5669 0 58.3261 2.15446 64.1323 6.46338C70.0441 10.7723 73 17.3408 73 26.1688C73 33.1051 71.2581 38.9379 67.7744 43.6672C64.3962 48.3965 60.0152 51.9172 54.6312 54.2293C49.2473 56.5414 43.705 57.6975 38.0043 57.6975C34.9429 57.6975 32.4093 57.4347 30.4035 56.9092C30.0868 56.9092 29.9284 56.6465 29.9284 56.121C29.9284 55.8057 29.9812 55.4904 30.0868 55.1752C30.2979 54.8599 30.509 54.7548 30.7202 54.8599C32.4093 55.2803 34.3095 55.4904 36.4208 55.4904C43.3883 55.4904 49.2473 53.2309 53.9978 48.7118C58.8539 44.1927 61.282 37.6767 61.282 29.164C61.282 20.8615 59.0123 14.3455 54.4729 9.61624C49.9335 4.78184 44.1273 2.36465 37.0542 2.36465C33.2538 2.36465 30.509 2.57484 28.82 2.99522C27.1309 3.4156 25.9168 4.41401 25.1779 5.99044C24.4389 7.46178 24.0694 9.98407 24.0694 13.5573V85.6003Z" fill="#F4F4F4"/>
</svg>
