<svg width="70" height="70" viewBox="0 0 70 70" fill="none" xmlns="http://www.w3.org/2000/svg">
<rect x="11.7109" y="31.5039" width="27" height="0.5" transform="rotate(-45 11.7109 31.5039)" fill="black"/>
<rect x="37.5203" y="57.3135" width="27" height="0.5" transform="rotate(-45 37.5203 57.3135)" fill="black"/>
<rect x="31.1163" y="57.2734" width="27" height="0.5" transform="rotate(-135 31.1163 57.2734)" fill="black"/>
<rect x="56.9258" y="31.4639" width="27" height="0.5" transform="rotate(-135 56.9258 31.4639)" fill="black"/>
<rect x="14.1458" y="34.9995" width="29.5" height="29.5" transform="rotate(-45 14.1458 34.9995)" stroke="black" stroke-width="0.5"/>
<rect x="11.3536" y="34.688" width="33" height="33" transform="rotate(-45 11.3536 34.688)" stroke="black" stroke-width="0.5"/>
<path d="M9.72088 33.055L11.6654 34.9995L9.72088 36.9441C8.64693 38.018 6.90573 38.018 5.83179 36.9441C4.75785 35.8701 4.75785 34.1289 5.83179 33.055C6.90573 31.981 8.64693 31.981 9.72088 33.055Z" stroke="black" stroke-width="0.5"/>
<path d="M36.9329 9.73211L34.9884 11.6766L33.0439 9.73211C31.9699 8.65816 31.9699 6.91696 33.0439 5.84302C34.1178 4.76908 35.859 4.76908 36.9329 5.84302C38.0069 6.91696 38.0069 8.65816 36.9329 9.73211Z" stroke="black" stroke-width="0.5"/>
<path d="M60.2791 36.945L58.3346 35.0005L60.2791 33.0559C61.3531 31.982 63.0943 31.982 64.1682 33.0559C65.2422 34.1299 65.2422 35.8711 64.1682 36.945C63.0943 38.019 61.3531 38.019 60.2791 36.945Z" stroke="black" stroke-width="0.5"/>
<path d="M33.0559 60.2791L35.0005 58.3346L36.945 60.2791C38.019 61.3531 38.019 63.0943 36.945 64.1682C35.8711 65.2422 34.1299 65.2422 33.0559 64.1682C31.982 63.0943 31.982 61.3531 33.0559 60.2791Z" stroke="black" stroke-width="0.5"/>
<path d="M32.924 31.1V39.5H32.312V31.652H26.624V39.5H26.012V31.1H32.924ZM35.6375 39.548C35.5015 39.548 35.3815 39.5 35.2775 39.404C35.1815 39.3 35.1335 39.176 35.1335 39.032C35.1335 38.888 35.1815 38.768 35.2775 38.672C35.3815 38.576 35.5015 38.528 35.6375 38.528C35.7735 38.528 35.8895 38.576 35.9855 38.672C36.0895 38.768 36.1415 38.888 36.1415 39.032C36.1415 39.176 36.0895 39.3 35.9855 39.404C35.8895 39.5 35.7735 39.548 35.6375 39.548ZM40.9798 35.516H38.9638V39.5H38.3518V31.1H38.9638V34.964H40.9918L44.0038 31.1H44.6878L41.4718 35.192L44.9038 39.5H44.1838L40.9798 35.516Z" fill="black"/>
</svg>
