<svg width="39" height="105" viewBox="0 0 39 105" fill="none" xmlns="http://www.w3.org/2000/svg">
<mask id="path-1-outside-1_267_68" maskUnits="userSpaceOnUse" x="0.296021" y="0.199951" width="39" height="105" fill="black">
<rect fill="white" x="0.296021" y="0.199951" width="39" height="105"/>
<path d="M36.424 2.19995V103H26.056V11.416H2.29602V2.19995H36.424Z"/>
</mask>
<path d="M36.424 2.19995H38.424V0.199951H36.424V2.19995ZM36.424 103V105H38.424V103H36.424ZM26.056 103H24.056V105H26.056V103ZM26.056 11.416H28.056V9.41595H26.056V11.416ZM2.29602 11.416H0.296021V13.416H2.29602V11.416ZM2.29602 2.19995V0.199951H0.296021V2.19995H2.29602ZM34.424 2.19995V103H38.424V2.19995H34.424ZM36.424 101H26.056V105H36.424V101ZM28.056 103V11.416H24.056V103H28.056ZM26.056 9.41595H2.29602V13.416H26.056V9.41595ZM4.29602 11.416V2.19995H0.296021V11.416H4.29602ZM2.29602 4.19995H36.424V0.199951H2.29602V4.19995Z" fill="black" mask="url(#path-1-outside-1_267_68)"/>
</svg>
