<svg width="79" height="106" viewBox="0 0 79 106" fill="none" xmlns="http://www.w3.org/2000/svg">
<mask id="path-1-outside-1_267_70" maskUnits="userSpaceOnUse" x="0.296021" y="0.199951" width="78" height="106" fill="black">
<rect fill="white" x="0.296021" y="0.199951" width="78" height="106"/>
<path d="M43.76 45.4C54.32 45.976 62.336 48.856 67.808 54.04C73.376 59.128 76.16 65.8 76.16 74.056C76.16 79.816 74.768 84.952 71.984 89.464C69.2 93.88 65.072 97.384 59.6 99.976C54.128 102.568 47.456 103.864 39.584 103.864C32.288 103.864 25.376 102.712 18.848 100.408C12.416 98.008 7.23202 94.84 3.29602 90.904L8.33602 82.696C11.696 86.152 16.16 88.984 21.728 91.192C27.296 93.304 33.248 94.36 39.584 94.36C47.84 94.36 54.224 92.584 58.736 89.032C63.248 85.384 65.504 80.392 65.504 74.056C65.504 67.816 63.248 62.92 58.736 59.368C54.224 55.816 47.408 54.04 38.288 54.04H31.088V46.408L59.024 11.416H7.47202V2.19995H72.272V9.54395L43.76 45.4Z"/>
</mask>
<path d="M43.76 45.4L42.1946 44.1552L39.7845 47.1861L43.6511 47.397L43.76 45.4ZM67.808 54.04L66.4325 55.4919L66.4456 55.5042L66.4589 55.5164L67.808 54.04ZM71.984 89.464L73.6759 90.5306L73.681 90.5224L73.6861 90.5142L71.984 89.464ZM59.6 99.976L58.7438 98.1685L58.7438 98.1685L59.6 99.976ZM18.848 100.408L18.1488 102.282L18.1656 102.288L18.1824 102.294L18.848 100.408ZM3.29602 90.904L1.59168 89.8574L0.765902 91.2023L1.88181 92.3182L3.29602 90.904ZM8.33602 82.696L9.77001 81.3018L7.97735 79.4579L6.63168 81.6494L8.33602 82.696ZM21.728 91.192L20.9908 93.0511L21.0047 93.0566L21.0187 93.062L21.728 91.192ZM58.736 89.032L59.9731 90.6034L59.9834 90.5954L59.9935 90.5872L58.736 89.032ZM58.736 59.368L59.9731 57.7965L59.9731 57.7965L58.736 59.368ZM31.088 54.04H29.088V56.04H31.088V54.04ZM31.088 46.408L29.525 45.1601L29.088 45.7075V46.408H31.088ZM59.024 11.416L60.587 12.6638L63.1799 9.41595H59.024V11.416ZM7.47202 11.416H5.47202V13.416H7.47202V11.416ZM7.47202 2.19995V0.199951H5.47202V2.19995H7.47202ZM72.272 2.19995H74.272V0.199951H72.272V2.19995ZM72.272 9.54395L73.8374 10.7887L74.272 10.2422V9.54395H72.272ZM43.6511 47.397C53.9266 47.9575 61.4209 50.744 66.4325 55.4919L69.1835 52.5881C63.2511 46.9679 54.7134 43.9944 43.869 43.4029L43.6511 47.397ZM66.4589 55.5164C71.5704 60.1872 74.16 66.3023 74.16 74.056H78.16C78.16 65.2976 75.1817 58.0687 69.1572 52.5635L66.4589 55.5164ZM74.16 74.056C74.16 79.4783 72.8544 84.2446 70.282 88.4137L73.6861 90.5142C76.6816 85.6594 78.16 80.1536 78.16 74.056H74.16ZM70.2922 88.3974C67.7414 92.4434 63.9286 95.7126 58.7438 98.1685L60.4562 101.783C66.2155 99.0554 70.6586 95.3165 73.6759 90.5306L70.2922 88.3974ZM58.7438 98.1685C53.6072 100.602 47.2453 101.864 39.584 101.864V105.864C47.6668 105.864 54.6489 104.534 60.4562 101.783L58.7438 98.1685ZM39.584 101.864C32.5024 101.864 25.8165 100.747 19.5137 98.522L18.1824 102.294C24.9355 104.677 32.0736 105.864 39.584 105.864V101.864ZM19.5472 98.5342C13.3226 96.2115 8.40203 93.1815 4.71023 89.4897L1.88181 92.3182C6.06201 96.4984 11.5094 99.8044 18.1488 102.282L19.5472 98.5342ZM5.00036 91.9505L10.0404 83.7425L6.63168 81.6494L1.59168 89.8574L5.00036 91.9505ZM6.90203 84.0901C10.5005 87.7914 15.2222 90.7636 20.9908 93.0511L22.4653 89.3328C17.0978 87.2043 12.8915 84.5125 9.77001 81.3018L6.90203 84.0901ZM21.0187 93.062C26.8275 95.2653 33.0213 96.36 39.584 96.36V92.36C33.4747 92.36 27.7645 91.3426 22.4373 89.322L21.0187 93.062ZM39.584 96.36C48.0979 96.36 54.9832 94.5317 59.9731 90.6034L57.4989 87.4605C53.4648 90.6362 47.5822 92.36 39.584 92.36V96.36ZM59.9935 90.5872C65.0223 86.5214 67.504 80.9325 67.504 74.056H63.504C63.504 79.8514 61.4738 84.2466 57.4786 87.4767L59.9935 90.5872ZM67.504 74.056C67.504 67.2639 65.0128 61.7639 59.9731 57.7965L57.4989 60.9394C61.4832 64.076 63.504 68.368 63.504 74.056H67.504ZM59.9731 57.7965C54.9542 53.8454 47.6102 52.04 38.288 52.04V56.04C47.2058 56.04 53.4938 57.7865 57.4989 60.9394L59.9731 57.7965ZM38.288 52.04H31.088V56.04H38.288V52.04ZM33.088 54.04V46.408H29.088V54.04H33.088ZM32.651 47.6558L60.587 12.6638L57.461 10.1681L29.525 45.1601L32.651 47.6558ZM59.024 9.41595H7.47202V13.416H59.024V9.41595ZM9.47202 11.416V2.19995H5.47202V11.416H9.47202ZM7.47202 4.19995H72.272V0.199951H7.47202V4.19995ZM70.272 2.19995V9.54395H74.272V2.19995H70.272ZM70.7066 8.29917L42.1946 44.1552L45.3254 46.6447L73.8374 10.7887L70.7066 8.29917Z" fill="black" mask="url(#path-1-outside-1_267_70)"/>
</svg>
