<svg width="90" height="112" viewBox="0 0 90 112" fill="none" xmlns="http://www.w3.org/2000/svg">
<path d="M87.6712 111.315C87.6712 101.993 86.1187 95.3668 83.0137 91.437C80 87.5985 74.8858 85.6793 67.6712 85.6793H0.273973C0.0913242 85.6793 0 85.4051 0 84.8568C0 84.3084 0.0913242 84.0343 0.273973 84.0343C3.74429 84.0343 6.30137 83.8058 7.94521 83.3488C9.68037 82.8919 10.8219 82.0237 11.3699 80.7442C12.0091 79.3733 12.3288 77.317 12.3288 74.5753V11.104C12.3288 8.3623 12.0091 6.35169 11.3699 5.07222C10.8219 3.79273 9.68037 2.92451 7.94521 2.46756C6.30137 1.91921 3.74429 1.64504 0.273973 1.64504C0.0913242 1.64504 0 1.37087 0 0.822519C0 0.274173 0.0913242 0 0.273973 0L7.12329 0.137085C10.9589 0.319865 14.0639 0.411255 16.4384 0.411255C18.9954 0.411255 22.2831 0.319865 26.3014 0.137085L33.1507 0C33.3333 0 33.4247 0.274173 33.4247 0.822519C33.4247 1.37087 33.3333 1.64504 33.1507 1.64504C29.589 1.64504 26.9863 1.91921 25.3425 2.46756C23.6986 2.92451 22.5571 3.79273 21.9178 5.07222C21.3699 6.35169 21.0959 8.3623 21.0959 11.104V74.3011C21.0959 77.4084 21.2329 79.4647 21.5068 80.47C21.8721 81.4753 22.6941 82.1151 23.9726 82.3892C25.2511 82.6634 27.8539 82.8005 31.7808 82.8005H57.3973C61.5068 82.8005 64.2466 82.6634 65.6164 82.3892C67.0776 82.1151 67.9909 81.4753 68.3562 80.47C68.7215 79.3733 68.9041 77.317 68.9041 74.3011V11.104C68.9041 8.3623 68.5845 6.35169 67.9452 5.07222C67.3973 3.79273 66.3014 2.92451 64.6575 2.46756C63.0137 1.91921 60.411 1.64504 56.8493 1.64504C56.5753 1.64504 56.4384 1.37087 56.4384 0.822519C56.4384 0.274173 56.5753 0 56.8493 0L63.6986 0.137085C67.7169 0.319865 70.9589 0.411255 73.4246 0.411255C75.8904 0.411255 79.0411 0.319865 82.8767 0.137085L89.726 0C89.9087 0 90 0.274173 90 0.822519C90 1.37087 89.9087 1.64504 89.726 1.64504C86.2557 1.64504 83.653 1.91921 81.9178 2.46756C80.274 2.92451 79.1324 3.79273 78.4931 5.07222C77.9452 6.35169 77.6712 8.3623 77.6712 11.104V74.5753C77.6712 78.0481 77.8082 80.3329 78.0822 81.4296C78.4475 82.5263 79.2694 83.2575 80.5479 83.623C81.8265 83.8972 84.3379 84.0343 88.0822 84.0343C88.8128 84.0343 89.2237 84.1257 89.3151 84.3085C89.4977 84.4912 89.589 84.9482 89.589 85.6793C89.589 87.233 89.5434 88.5581 89.452 89.6548C89.2694 94.2244 89.1781 101.444 89.1781 111.315C89.1781 111.772 88.9041 112 88.3562 112C87.8995 112 87.6712 111.772 87.6712 111.315Z" fill="#F4F4F4"/>
</svg>
