<svg width="192" height="70" viewBox="0 0 192 70" fill="none" xmlns="http://www.w3.org/2000/svg">
<rect x="12.0211" y="31.8179" width="27" height="0.5" transform="rotate(-45 12.0211 31.8179)" fill="black"/>
<rect x="37.8304" y="57.6274" width="27" height="0.5" transform="rotate(-45 37.8304 57.6274)" fill="black"/>
<rect x="31.1129" y="57.2739" width="27" height="0.5" transform="rotate(-135 31.1129 57.2739)" fill="black"/>
<rect x="56.9224" y="31.4644" width="27" height="0.5" transform="rotate(-135 56.9224 31.4644)" fill="black"/>
<rect x="14.1422" y="35" width="29.5" height="29.5" transform="rotate(-45 14.1422 35)" stroke="black" stroke-width="0.5"/>
<rect x="11.6675" y="35" width="33" height="33" transform="rotate(-45 11.6675 35)" stroke="black" stroke-width="0.5"/>
<path d="M9.71746 33.0555L11.662 35L9.71746 36.9445C8.64352 38.0185 6.90231 38.0185 5.82837 36.9445C4.75443 35.8706 4.75443 34.1294 5.82837 33.0555C6.90231 31.9815 8.64352 31.9815 9.71746 33.0555Z" stroke="black" stroke-width="0.5"/>
<path d="M36.9295 9.73211L34.985 11.6766L33.0404 9.73211C31.9665 8.65816 31.9665 6.91696 33.0404 5.84302C34.1144 4.76908 35.8556 4.76908 36.9295 5.84302C38.0035 6.91696 38.0035 8.65816 36.9295 9.73211Z" stroke="black" stroke-width="0.5"/>
<path d="M60.2757 36.9455L58.3312 35.001L60.2757 33.0564C61.3496 31.9825 63.0909 31.9825 64.1648 33.0564C65.2387 34.1304 65.2387 35.8716 64.1648 36.9455C63.0909 38.0195 61.3496 38.0195 60.2757 36.9455Z" stroke="black" stroke-width="0.5"/>
<path d="M33.0524 60.2796L34.9969 58.3351L36.9415 60.2796C38.0154 61.3536 38.0154 63.0948 36.9415 64.1687C35.8676 65.2426 34.1263 65.2426 33.0524 64.1687C31.9785 63.0948 31.9785 61.3536 33.0524 60.2796Z" stroke="black" stroke-width="0.5"/>
<path d="M88.194 42.688C88.246 42.688 88.272 42.74 88.272 42.844C88.272 42.948 88.246 43 88.194 43C87.6047 43 87.1367 42.9913 86.79 42.974L84.892 42.948L82.734 42.974C82.37 42.9913 81.8847 43 81.278 43C81.226 43 81.2 42.948 81.2 42.844C81.2 42.74 81.226 42.688 81.278 42.688C81.8673 42.688 82.3007 42.6447 82.578 42.558C82.8553 42.4713 83.0373 42.3067 83.124 42.064C83.228 41.804 83.28 41.414 83.28 40.894V29.168C83.28 28.5787 83.254 28.1887 83.202 27.998C83.1673 27.8073 83.072 27.686 82.916 27.634C82.76 27.582 82.448 27.556 81.98 27.556H76.65C76.13 27.556 75.7833 27.582 75.61 27.634C75.4367 27.686 75.324 27.8073 75.272 27.998C75.2373 28.1887 75.22 28.5787 75.22 29.168V40.894C75.22 41.4313 75.2633 41.8213 75.35 42.064C75.454 42.3067 75.636 42.4713 75.896 42.558C76.1733 42.6447 76.6153 42.688 77.222 42.688C77.274 42.688 77.3 42.74 77.3 42.844C77.3 42.948 77.274 43 77.222 43C76.6153 43 76.13 42.9913 75.766 42.974L73.608 42.948L71.684 42.974C71.3373 42.9913 70.8693 43 70.28 43C70.2453 43 70.228 42.948 70.228 42.844C70.228 42.74 70.2453 42.688 70.28 42.688C70.8867 42.688 71.3287 42.6447 71.606 42.558C71.8833 42.4713 72.074 42.3067 72.178 42.064C72.282 41.804 72.334 41.414 72.334 40.894V29.168C72.334 28.388 72.204 27.842 71.944 27.53C71.684 27.218 71.1467 27.062 70.332 27.062C70.28 27.062 70.254 27.01 70.254 26.906C70.254 26.802 70.28 26.75 70.332 26.75C70.9213 26.75 71.4933 26.7587 72.048 26.776C74.3707 26.8107 76.806 26.828 79.354 26.828C81.6593 26.828 84.32 26.802 87.336 26.75H88.194C88.246 26.75 88.272 26.802 88.272 26.906C88.272 27.01 88.246 27.062 88.194 27.062C87.3793 27.062 86.8333 27.218 86.556 27.53C86.296 27.842 86.166 28.388 86.166 29.168V40.894C86.166 41.414 86.218 41.804 86.322 42.064C86.426 42.3067 86.6167 42.4713 86.894 42.558C87.1713 42.6447 87.6047 42.688 88.194 42.688ZM96.1754 43.312C94.9447 43.312 93.8441 43.026 92.8734 42.454C91.9027 41.8647 91.1487 41.0847 90.6114 40.114C90.0741 39.126 89.8054 38.06 89.8054 36.916C89.8054 35.5987 90.1434 34.4547 90.8194 33.484C91.5127 32.5133 92.3881 31.7767 93.4454 31.274C94.5201 30.7713 95.6207 30.52 96.7474 30.52C97.9781 30.52 99.0614 30.8233 99.9974 31.43C100.951 32.0193 101.687 32.7993 102.207 33.77C102.727 34.7233 102.987 35.7287 102.987 36.786C102.987 37.9473 102.684 39.0307 102.077 40.036C101.471 41.024 100.647 41.8213 99.6074 42.428C98.5674 43.0173 97.4234 43.312 96.1754 43.312ZM96.7734 42.714C97.7441 42.714 98.5241 42.2373 99.1134 41.284C99.7201 40.3307 100.023 39.0133 100.023 37.332C100.023 36.188 99.8501 35.148 99.5034 34.212C99.1567 33.276 98.6627 32.5393 98.0214 32.002C97.3974 31.4473 96.6694 31.17 95.8374 31.17C94.8321 31.17 94.0694 31.586 93.5494 32.418C93.0294 33.25 92.7694 34.4807 92.7694 36.11C92.7694 37.3407 92.9427 38.4673 93.2894 39.49C93.6534 40.4953 94.1387 41.284 94.7454 41.856C95.3521 42.428 96.0281 42.714 96.7734 42.714ZM116.142 42.688C116.281 42.688 116.367 42.7053 116.402 42.74C116.437 42.7747 116.454 42.8613 116.454 43C116.454 43.3293 116.428 43.6847 116.376 44.066C116.255 45.0713 116.194 46.0333 116.194 46.952C116.194 47.0387 116.142 47.082 116.038 47.082C115.934 47.082 115.882 47.0387 115.882 46.952C115.882 45.6693 115.596 44.6813 115.024 43.988C114.452 43.312 113.629 42.974 112.554 42.974H107.146C106.071 42.974 105.257 43.312 104.702 43.988C104.147 44.664 103.87 45.652 103.87 46.952C103.87 47.0387 103.818 47.082 103.714 47.082C103.61 47.082 103.558 47.0387 103.558 46.952C103.558 45.9293 103.497 44.976 103.376 44.092C103.359 43.9707 103.341 43.806 103.324 43.598C103.307 43.39 103.298 43.1907 103.298 43C103.298 42.844 103.307 42.7487 103.324 42.714C103.359 42.6793 103.445 42.662 103.584 42.662C104.728 42.662 105.673 41.8647 106.418 40.27C107.163 38.6753 107.649 36.3787 107.874 33.38C107.891 33.2067 107.9 32.9813 107.9 32.704C107.9 32.0627 107.77 31.6467 107.51 31.456C107.25 31.248 106.756 31.144 106.028 31.144C105.976 31.144 105.95 31.092 105.95 30.988C105.95 30.884 105.976 30.832 106.028 30.832H116.246C116.281 30.832 116.298 30.884 116.298 30.988C116.298 31.092 116.281 31.144 116.246 31.144C115.761 31.144 115.397 31.196 115.154 31.3C114.911 31.404 114.747 31.586 114.66 31.846C114.573 32.0887 114.53 32.47 114.53 32.99V40.894C114.53 41.57 114.547 42.012 114.582 42.22C114.634 42.428 114.755 42.558 114.946 42.61C115.137 42.662 115.535 42.688 116.142 42.688ZM112.112 32.938C112.112 32.366 112.095 31.9933 112.06 31.82C112.025 31.6467 111.947 31.5427 111.826 31.508C111.722 31.4733 111.462 31.456 111.046 31.456H110.214C109.711 31.456 109.365 31.482 109.174 31.534C109.001 31.586 108.879 31.6987 108.81 31.872C108.758 32.0453 108.715 32.3833 108.68 32.886C108.472 35.3127 108.134 37.3147 107.666 38.892C107.215 40.452 106.6 41.596 105.82 42.324H110.032C110.795 42.324 111.289 42.3067 111.514 42.272C111.739 42.2373 111.895 42.1333 111.982 41.96C112.069 41.7693 112.112 41.414 112.112 40.894V32.938ZM119.914 43.286C119.428 43.286 119.038 43.1473 118.744 42.87C118.466 42.5753 118.328 42.1853 118.328 41.7C118.328 41.2493 118.466 40.8853 118.744 40.608C119.038 40.3307 119.428 40.192 119.914 40.192C120.399 40.192 120.772 40.3307 121.032 40.608C121.309 40.868 121.448 41.232 121.448 41.7C121.448 42.2027 121.309 42.5927 121.032 42.87C120.772 43.1473 120.399 43.286 119.914 43.286ZM140.142 42.688C140.194 42.688 140.22 42.74 140.22 42.844C140.22 42.948 140.194 43 140.142 43H136.138C135.913 43 135.705 42.9307 135.514 42.792C135.341 42.6533 135.029 42.298 134.578 41.726C134.128 41.1367 133.391 40.1053 132.368 38.632L131.666 37.644C131.06 36.76 130.609 36.1447 130.314 35.798C130.02 35.434 129.708 35.1827 129.378 35.044C129.066 34.888 128.65 34.81 128.13 34.81V40.894C128.13 41.414 128.174 41.804 128.26 42.064C128.364 42.3067 128.555 42.4713 128.832 42.558C129.11 42.6447 129.543 42.688 130.132 42.688C130.184 42.688 130.21 42.74 130.21 42.844C130.21 42.948 130.184 43 130.132 43C129.526 43 129.04 42.9913 128.676 42.974L126.518 42.948L124.62 42.974C124.274 42.9913 123.806 43 123.216 43C123.164 43 123.138 42.948 123.138 42.844C123.138 42.74 123.164 42.688 123.216 42.688C123.806 42.688 124.239 42.6447 124.516 42.558C124.794 42.4713 124.984 42.3067 125.088 42.064C125.192 41.804 125.244 41.414 125.244 40.894V28.856C125.244 28.336 125.192 27.9547 125.088 27.712C124.984 27.4693 124.794 27.3047 124.516 27.218C124.256 27.114 123.832 27.062 123.242 27.062C123.19 27.062 123.164 27.01 123.164 26.906C123.164 26.802 123.19 26.75 123.242 26.75L124.62 26.776C125.418 26.8107 126.05 26.828 126.518 26.828C127.108 26.828 127.836 26.8107 128.702 26.776L130.132 26.75C130.184 26.75 130.21 26.802 130.21 26.906C130.21 27.01 130.184 27.062 130.132 27.062C129.56 27.062 129.136 27.114 128.858 27.218C128.581 27.322 128.39 27.504 128.286 27.764C128.182 28.0067 128.13 28.388 128.13 28.908V34.368C128.598 34.3507 129.188 34.342 129.898 34.342L132.628 30.598C133.339 29.61 133.694 28.7867 133.694 28.128C133.694 27.7987 133.599 27.5387 133.408 27.348C133.218 27.1573 132.958 27.062 132.628 27.062C132.594 27.062 132.576 27.01 132.576 26.906C132.576 26.802 132.594 26.75 132.628 26.75L133.824 26.776C134.587 26.8107 135.263 26.828 135.852 26.828C136.528 26.828 137.23 26.8107 137.958 26.776L139.076 26.75C139.128 26.75 139.154 26.802 139.154 26.906C139.154 27.01 139.128 27.062 139.076 27.062C138.314 27.062 137.456 27.3393 136.502 27.894C135.549 28.4487 134.743 29.142 134.084 29.974L130.548 34.368C131.224 34.4027 131.779 34.5327 132.212 34.758C132.646 34.966 133.07 35.304 133.486 35.772C133.92 36.24 134.526 37.02 135.306 38.112L135.774 38.762C136.502 39.7673 137.066 40.5213 137.464 41.024C137.88 41.5267 138.305 41.9253 138.738 42.22C139.172 42.5147 139.64 42.6707 140.142 42.688ZM147.37 31.326C146.868 31.326 146.512 31.3607 146.304 31.43C146.096 31.4993 145.949 31.638 145.862 31.846C145.776 32.054 145.706 32.4007 145.654 32.886L145.576 33.51C145.368 35.3993 145.134 36.994 144.874 38.294C144.632 39.594 144.233 40.7467 143.678 41.752C143.124 42.74 142.387 43.234 141.468 43.234C141.035 43.234 140.688 43.13 140.428 42.922C140.168 42.714 140.038 42.4193 140.038 42.038C140.038 41.6393 140.168 41.336 140.428 41.128C140.688 40.9027 141.009 40.79 141.39 40.79C142.413 40.79 143.21 40.2007 143.782 39.022C144.372 37.826 144.779 35.9453 145.004 33.38C145.022 33.2067 145.03 32.9813 145.03 32.704C145.03 32.08 144.9 31.664 144.64 31.456C144.38 31.248 143.886 31.144 143.158 31.144C143.124 31.144 143.106 31.092 143.106 30.988C143.106 30.884 143.124 30.832 143.158 30.832H153.558C153.61 30.832 153.636 30.884 153.636 30.988C153.636 31.092 153.61 31.144 153.558 31.144C153.073 31.144 152.709 31.196 152.466 31.3C152.241 31.3867 152.085 31.5513 151.998 31.794C151.912 32.0367 151.868 32.418 151.868 32.938V40.894C151.868 41.414 151.912 41.804 151.998 42.064C152.085 42.3067 152.241 42.4713 152.466 42.558C152.692 42.6447 153.056 42.688 153.558 42.688C153.61 42.688 153.636 42.74 153.636 42.844C153.636 42.948 153.61 43 153.558 43C153.021 43 152.605 42.9913 152.31 42.974L150.594 42.948L148.826 42.974C148.532 42.9913 148.124 43 147.604 43C147.552 43 147.526 42.948 147.526 42.844C147.526 42.74 147.552 42.688 147.604 42.688C148.09 42.688 148.445 42.6447 148.67 42.558C148.896 42.4713 149.052 42.3067 149.138 42.064C149.225 41.804 149.268 41.414 149.268 40.894V32.99C149.268 32.314 149.173 31.872 148.982 31.664C148.792 31.4387 148.393 31.326 147.786 31.326H147.37ZM169.123 30.52C170.336 30.52 171.411 30.8233 172.347 31.43C173.3 32.0193 174.037 32.7993 174.557 33.77C175.077 34.7233 175.337 35.7287 175.337 36.786C175.337 37.9473 175.034 39.0307 174.427 40.036C173.82 41.024 172.997 41.8213 171.957 42.428C170.934 43.0173 169.808 43.312 168.577 43.312C167.416 43.312 166.376 43.0433 165.457 42.506C164.556 41.9513 163.845 41.206 163.325 40.27C162.805 39.334 162.519 38.3113 162.467 37.202H159.451V40.894C159.451 41.414 159.494 41.7953 159.581 42.038C159.668 42.2807 159.824 42.454 160.049 42.558C160.292 42.6447 160.656 42.688 161.141 42.688C161.176 42.688 161.193 42.74 161.193 42.844C161.193 42.948 161.176 43 161.141 43C160.604 43 160.188 42.9913 159.893 42.974L158.151 42.948L156.461 42.974C156.149 42.9913 155.716 43 155.161 43C155.126 43 155.109 42.948 155.109 42.844C155.109 42.74 155.126 42.688 155.161 42.688C155.664 42.688 156.028 42.6447 156.253 42.558C156.496 42.4713 156.66 42.3067 156.747 42.064C156.834 41.804 156.877 41.414 156.877 40.894V32.938C156.877 32.418 156.834 32.0367 156.747 31.794C156.66 31.5513 156.496 31.3867 156.253 31.3C156.028 31.196 155.681 31.144 155.213 31.144C155.161 31.144 155.135 31.092 155.135 30.988C155.135 30.884 155.161 30.832 155.213 30.832L156.461 30.858C157.154 30.8927 157.718 30.91 158.151 30.91C158.619 30.91 159.2 30.8927 159.893 30.858L161.141 30.832C161.176 30.832 161.193 30.884 161.193 30.988C161.193 31.092 161.176 31.144 161.141 31.144C160.448 31.144 159.988 31.2653 159.763 31.508C159.555 31.7507 159.451 32.2447 159.451 32.99V36.526H162.467C162.536 35.278 162.9 34.2033 163.559 33.302C164.235 32.3833 165.067 31.69 166.055 31.222C167.06 30.754 168.083 30.52 169.123 30.52ZM169.201 42.714C170.137 42.714 170.9 42.2373 171.489 41.284C172.078 40.3133 172.373 39.0393 172.373 37.462C172.373 36.2833 172.2 35.2173 171.853 34.264C171.506 33.2933 171.021 32.5393 170.397 32.002C169.79 31.4473 169.088 31.17 168.291 31.17C167.338 31.17 166.618 31.5773 166.133 32.392C165.665 33.1893 165.431 34.3767 165.431 35.954C165.431 37.2713 165.596 38.4413 165.925 39.464C166.254 40.4867 166.705 41.284 167.277 41.856C167.849 42.428 168.49 42.714 169.201 42.714ZM190.259 42.688C190.294 42.688 190.311 42.74 190.311 42.844C190.311 42.948 190.294 43 190.259 43C189.705 43 189.271 42.9913 188.959 42.974L187.269 42.948L185.527 42.974C185.233 42.9913 184.825 43 184.305 43C184.253 43 184.227 42.948 184.227 42.844C184.227 42.74 184.253 42.688 184.305 42.688C184.791 42.688 185.146 42.6447 185.371 42.558C185.597 42.454 185.753 42.2807 185.839 42.038C185.926 41.7953 185.969 41.414 185.969 40.894V36.37C184.6 37.878 183.17 38.632 181.679 38.632C180.57 38.632 179.686 38.32 179.027 37.696C178.369 37.0547 178.039 36.1187 178.039 34.888V32.938C178.039 32.262 177.901 31.794 177.623 31.534C177.346 31.274 177.008 31.144 176.609 31.144C176.557 31.144 176.531 31.092 176.531 30.988C176.531 30.884 176.557 30.832 176.609 30.832L177.753 30.858C178.481 30.8927 178.993 30.91 179.287 30.91C179.599 30.91 180.137 30.8927 180.899 30.858L182.173 30.832C182.208 30.832 182.225 30.884 182.225 30.988C182.225 31.092 182.208 31.144 182.173 31.144C181.636 31.144 181.211 31.2827 180.899 31.56C180.587 31.82 180.431 32.2967 180.431 32.99V34.29C180.431 35.2953 180.631 36.058 181.029 36.578C181.445 37.0807 182.043 37.332 182.823 37.332C183.326 37.332 183.855 37.202 184.409 36.942C184.964 36.682 185.484 36.318 185.969 35.85V32.99C185.969 32.2447 185.857 31.7507 185.631 31.508C185.423 31.2653 184.981 31.144 184.305 31.144C184.253 31.144 184.227 31.092 184.227 30.988C184.227 30.884 184.253 30.832 184.305 30.832L185.527 30.858C186.255 30.8927 186.836 30.91 187.269 30.91C187.703 30.91 188.266 30.8927 188.959 30.858L190.259 30.832C190.294 30.832 190.311 30.884 190.311 30.988C190.311 31.092 190.294 31.144 190.259 31.144C189.774 31.144 189.41 31.196 189.167 31.3C188.925 31.3867 188.76 31.5513 188.673 31.794C188.587 32.0367 188.543 32.418 188.543 32.938V40.894C188.543 41.414 188.587 41.804 188.673 42.064C188.76 42.3067 188.916 42.4713 189.141 42.558C189.384 42.6447 189.757 42.688 190.259 42.688Z" fill="black"/>
<path d="M32.924 30.6V39H32.312V31.152H26.624V39H26.012V30.6H32.924ZM35.6375 39.048C35.5015 39.048 35.3815 39 35.2775 38.904C35.1815 38.8 35.1335 38.676 35.1335 38.532C35.1335 38.388 35.1815 38.268 35.2775 38.172C35.3815 38.076 35.5015 38.028 35.6375 38.028C35.7735 38.028 35.8895 38.076 35.9855 38.172C36.0895 38.268 36.1415 38.388 36.1415 38.532C36.1415 38.676 36.0895 38.8 35.9855 38.904C35.8895 39 35.7735 39.048 35.6375 39.048ZM40.9798 35.016H38.9638V39H38.3518V30.6H38.9638V34.464H40.9918L44.0038 30.6H44.6878L41.4718 34.692L44.9038 39H44.1838L40.9798 35.016Z" fill="black"/>
</svg>
