<svg width="80" height="106" viewBox="0 0 80 106" fill="none" xmlns="http://www.w3.org/2000/svg">
<mask id="path-1-outside-1_267_69" maskUnits="userSpaceOnUse" x="0.592041" y="0.335938" width="79" height="106" fill="black">
<rect fill="white" x="0.592041" y="0.335938" width="79" height="106"/>
<path d="M77.32 94.7839V104H6.61604V96.6559L48.52 55.6159C53.8 50.4319 57.352 45.9679 59.176 42.2239C61.096 38.3839 62.056 34.5439 62.056 30.7039C62.056 24.7519 59.992 20.1439 55.864 16.8799C51.832 13.5199 46.024 11.8399 38.44 11.8399C26.632 11.8399 17.464 15.5839 10.936 23.0719L3.59204 16.7359C7.52804 12.1279 12.52 8.57594 18.568 6.07994C24.712 3.58394 31.624 2.33594 39.304 2.33594C49.576 2.33594 57.688 4.78394 63.64 9.67994C69.688 14.4799 72.712 21.1039 72.712 29.5519C72.712 34.7359 71.56 39.7279 69.256 44.5279C66.952 49.3279 62.584 54.8479 56.152 61.0879L21.88 94.7839H77.32Z"/>
</mask>
<path d="M77.32 94.7839H79.32V92.7839H77.32V94.7839ZM77.32 104V106H79.32V104H77.32ZM6.61604 104H4.61604V106H6.61604V104ZM6.61604 96.6559L5.21663 95.2271L4.61604 95.8153V96.6559H6.61604ZM48.52 55.6159L49.9194 57.0448L49.9212 57.0431L48.52 55.6159ZM59.176 42.2239L57.3872 41.3295L57.3826 41.3387L57.3781 41.348L59.176 42.2239ZM55.864 16.8799L54.5837 18.4164L54.6034 18.4328L54.6236 18.4488L55.864 16.8799ZM10.936 23.0719L9.62958 24.5863L11.1361 25.886L12.4436 24.3862L10.936 23.0719ZM3.59204 16.7359L2.07129 15.437L0.778722 16.9502L2.28557 18.2503L3.59204 16.7359ZM18.568 6.07994L17.8153 4.22698L17.8051 4.23119L18.568 6.07994ZM63.64 9.67994L62.3695 11.2245L62.383 11.2356L62.3967 11.2465L63.64 9.67994ZM69.256 44.5279L71.0591 45.3934L71.0591 45.3934L69.256 44.5279ZM56.152 61.0879L54.7594 59.6524L54.7499 59.6618L56.152 61.0879ZM21.88 94.7839L20.4779 93.3578L16.9932 96.7839H21.88V94.7839ZM75.32 94.7839V104H79.32V94.7839H75.32ZM77.32 102H6.61604V106H77.32V102ZM8.61604 104V96.6559H4.61604V104H8.61604ZM8.01545 98.0848L49.9194 57.0448L47.1206 54.1871L5.21663 95.2271L8.01545 98.0848ZM49.9212 57.0431C55.258 51.8033 59.0011 47.1496 60.974 43.0999L57.3781 41.348C55.703 44.7863 52.3421 49.0606 47.1189 54.1888L49.9212 57.0431ZM60.9649 43.1184C63.0072 39.0338 64.056 34.8895 64.056 30.7039H60.056C60.056 34.1984 59.1849 37.7341 57.3872 41.3295L60.9649 43.1184ZM64.056 30.7039C64.056 24.2312 61.7793 19.0074 57.1045 15.3111L54.6236 18.4488C58.2048 21.2805 60.056 25.2726 60.056 30.7039H64.056ZM57.1444 15.3435C52.6228 11.5754 46.2885 9.83994 38.44 9.83994V13.8399C45.7596 13.8399 51.0413 15.4644 54.5837 18.4164L57.1444 15.3435ZM38.44 9.83994C26.1738 9.83994 16.4085 13.7512 9.4285 21.7577L12.4436 24.3862C18.5196 17.4167 27.0903 13.8399 38.44 13.8399V9.83994ZM12.2425 21.5576L4.89851 15.2216L2.28557 18.2503L9.62958 24.5863L12.2425 21.5576ZM5.11279 18.0349C8.82714 13.6864 13.5517 10.3138 19.331 7.92869L17.8051 4.23119C11.4884 6.83808 6.22894 10.5695 2.07129 15.437L5.11279 18.0349ZM19.3208 7.93287C25.191 5.5481 31.8418 4.33594 39.304 4.33594V0.335938C31.4063 0.335938 24.2331 1.61978 17.8153 4.22701L19.3208 7.93287ZM39.304 4.33594C49.2675 4.33594 56.8792 6.70832 62.3695 11.2245L64.9106 8.13536C58.4969 2.85956 49.8845 0.335938 39.304 0.335938V4.33594ZM62.3967 11.2465C67.9175 15.6281 70.712 21.6485 70.712 29.5519H74.712C74.712 20.5594 71.4586 13.3318 64.8834 8.11336L62.3967 11.2465ZM70.712 29.5519C70.712 34.4281 69.631 39.125 67.453 43.6625L71.0591 45.3934C73.4891 40.3308 74.712 35.0438 74.712 29.5519H70.712ZM67.453 43.6625C65.2975 48.1531 61.1215 53.4803 54.7594 59.6525L57.5447 62.5234C64.0466 56.2156 68.6066 50.5028 71.0591 45.3934L67.453 43.6625ZM54.7499 59.6618L20.4779 93.3578L23.2822 96.2101L57.5542 62.5141L54.7499 59.6618ZM21.88 96.7839H77.32V92.7839H21.88V96.7839Z" fill="black" mask="url(#path-1-outside-1_267_69)"/>
</svg>
