<svg width="93" height="105" viewBox="0 0 93 105" fill="none" xmlns="http://www.w3.org/2000/svg">
<mask id="path-1-outside-1_267_71" maskUnits="userSpaceOnUse" x="0.76001" y="0.199951" width="92" height="105" fill="black">
<rect fill="white" x="0.76001" y="0.199951" width="92" height="105"/>
<path d="M90.168 76.504H70.008V103H59.64V76.504H2.76001V69.016L56.184 2.19995H67.704L16.152 67.288H59.928V43.96H70.008V67.288H90.168V76.504Z"/>
</mask>
<path d="M90.168 76.504V78.504H92.168V76.504H90.168ZM70.008 76.504V74.504H68.008V76.504H70.008ZM70.008 103V105H72.008V103H70.008ZM59.64 103H57.64V105H59.64V103ZM59.64 76.504H61.64V74.504H59.64V76.504ZM2.76001 76.504H0.76001V78.504H2.76001V76.504ZM2.76001 69.016L1.19794 67.767L0.76001 68.3147V69.016H2.76001ZM56.184 2.19995V0.199951H55.2224L54.6219 0.950972L56.184 2.19995ZM67.704 2.19995L69.2718 3.44171L71.8394 0.199951L67.704 0.199951V2.19995ZM16.152 67.288L14.5842 66.0462L12.0166 69.288H16.152V67.288ZM59.928 67.288V69.288H61.928V67.288H59.928ZM59.928 43.96V41.96H57.928V43.96H59.928ZM70.008 43.96H72.008V41.96H70.008V43.96ZM70.008 67.288H68.008V69.288H70.008V67.288ZM90.168 67.288H92.168V65.288H90.168V67.288ZM90.168 74.504H70.008V78.504H90.168V74.504ZM68.008 76.504V103H72.008V76.504H68.008ZM70.008 101H59.64V105H70.008V101ZM61.64 103V76.504H57.64V103H61.64ZM59.64 74.504H2.76001V78.504H59.64V74.504ZM4.76001 76.504V69.016H0.76001V76.504H4.76001ZM4.32208 70.2649L57.7461 3.44893L54.6219 0.950972L1.19794 67.767L4.32208 70.2649ZM56.184 4.19995H67.704V0.199951H56.184V4.19995ZM66.1362 0.95819L14.5842 66.0462L17.7198 68.5297L69.2718 3.44171L66.1362 0.95819ZM16.152 69.288H59.928V65.288H16.152V69.288ZM61.928 67.288V43.96H57.928V67.288H61.928ZM59.928 45.96H70.008V41.96H59.928V45.96ZM68.008 43.96V67.288H72.008V43.96H68.008ZM70.008 69.288H90.168V65.288H70.008V69.288ZM88.168 67.288V76.504H92.168V67.288H88.168Z" fill="black" mask="url(#path-1-outside-1_267_71)"/>
</svg>
