<svg width="99" height="101" viewBox="0 0 99 101" fill="none" xmlns="http://www.w3.org/2000/svg">
<path d="M98.6796 99.0608C98.8932 99.0608 99 99.384 99 100.03C99 100.677 98.8932 101 98.6796 101H78.4951C77 101 75.665 100.623 74.4903 99.8688C73.4223 99.0069 71.6068 96.8523 69.0437 93.4048C66.4806 89.9573 61.8883 83.4395 55.267 73.8512C50.034 66.3099 46.2427 61.0848 43.8932 58.176C41.5437 55.2672 39.1408 53.2203 36.6845 52.0352C34.2282 50.7424 30.9175 50.096 26.7524 50.096C25.7913 50.096 25.0971 50.1499 24.6699 50.2576V87.9104C24.6699 91.1424 24.9903 93.5664 25.6311 95.1824C26.3786 96.6907 27.6602 97.7141 29.4757 98.2528C31.3981 98.7915 34.4417 99.0608 38.6068 99.0608C38.8204 99.0608 38.9272 99.384 38.9272 100.03C38.9272 100.677 38.8204 101 38.6068 101C35.2961 101 32.6796 100.946 30.7573 100.838L19.2233 100.677L8.3301 100.838C6.40777 100.946 3.73786 101 0.320388 101C0.106796 101 0 100.677 0 100.03C0 99.384 0.106796 99.0608 0.320388 99.0608C4.37864 99.0608 7.36893 98.7915 9.29126 98.2528C11.2136 97.7141 12.4951 96.6907 13.1359 95.1824C13.8835 93.5664 14.2573 91.1424 14.2573 87.9104V13.0896C14.2573 9.8576 13.9369 7.48747 13.2961 5.9792C12.6553 4.47093 11.3738 3.44746 9.45146 2.90879C7.52913 2.26239 4.53884 1.93919 0.480582 1.93919C0.26699 1.93919 0.160194 1.616 0.160194 0.969597C0.160194 0.323199 0.26699 0 0.480582 0L8.3301 0.161598C12.8155 0.377062 16.4466 0.484794 19.2233 0.484794C22.3204 0.484794 26.2184 0.377062 30.9175 0.161598L38.6068 0C38.8204 0 38.9272 0.323199 38.9272 0.969597C38.9272 1.616 38.8204 1.93919 38.6068 1.93919C34.5485 1.93919 31.5583 2.26239 29.6359 2.90879C27.7136 3.5552 26.3786 4.6864 25.6311 6.3024C24.9903 7.81066 24.6699 10.1808 24.6699 13.4128V47.5104C30.4369 47.2949 34.0146 47.1872 35.4029 47.1872H38.4466L57.8301 19.8768C62.6359 13.1973 65.0388 8.5648 65.0388 5.9792C65.0388 4.57867 64.3447 3.5552 62.9563 2.90879C61.6748 2.26239 59.6456 1.93919 56.8689 1.93919C56.6553 1.93919 56.5485 1.616 56.5485 0.969597C56.5485 0.323199 56.6553 0 56.8689 0L63.7573 0.161598C67.8155 0.377062 71.6068 0.484794 75.1311 0.484794C78.7621 0.484794 82.5 0.377062 86.3447 0.161598L92.1117 0C92.432 0 92.5922 0.323199 92.5922 0.969597C92.5922 1.616 92.432 1.93919 92.1117 1.93919C86.5583 1.93919 81.6456 3.33973 77.3738 6.1408C73.1019 8.83413 68.5097 13.4667 63.5971 20.0384L42.1311 47.672C44.6942 48.1029 46.8835 48.9648 48.699 50.2576C50.6214 51.5504 52.5437 53.3819 54.466 55.752C56.3883 58.0144 59.2184 61.8389 62.9563 67.2256L65.3592 70.6192C70.3786 77.7296 74.4369 83.1701 77.534 86.9408C80.6311 90.7115 83.8884 93.6741 87.3058 95.8288C90.7233 97.8757 94.5146 98.9531 98.6796 99.0608Z" fill="#F4F4F4"/>
</svg>
